G75*
G70*
%OFA0B0*%
%FSLAX24Y24*%
%IPPOS*%
%LPD*%
%AMOC8*
5,1,8,0,0,1.08239X$1,22.5*
%
%ADD10R,0.0474X0.0513*%
%ADD11R,0.0714X0.0714*%
%ADD12OC8,0.0714*%
%ADD13R,0.1104X0.0336*%
%ADD14OC8,0.0840*%
D10*
X005350Y000965D03*
X005350Y001635D03*
X006250Y002165D03*
X006250Y002835D03*
D11*
X001650Y009900D03*
D12*
X000650Y000900D03*
X000650Y001900D03*
X000650Y002900D03*
X000650Y003900D03*
X000650Y004900D03*
X000650Y005900D03*
X000650Y006900D03*
X000650Y007900D03*
X000650Y008900D03*
X000650Y009900D03*
X001650Y008900D03*
X001650Y007900D03*
X001650Y006900D03*
X001650Y005900D03*
X001650Y004900D03*
X001650Y003900D03*
X001650Y002900D03*
X001650Y001900D03*
X001650Y000900D03*
D13*
X003522Y003400D03*
X003522Y003900D03*
X003522Y004400D03*
X003522Y004900D03*
X003522Y005400D03*
X004978Y005400D03*
X004978Y004900D03*
X004978Y004400D03*
X004978Y003900D03*
X004978Y003400D03*
D14*
X003950Y001200D03*
X002950Y001200D03*
X003150Y008100D03*
X004150Y008100D03*
X005150Y008100D03*
X004150Y009700D03*
X003150Y009700D03*
M02*
