G75*
G70*
%OFA0B0*%
%FSLAX24Y24*%
%IPPOS*%
%LPD*%
%AMOC8*
5,1,8,0,0,1.08239X$1,22.5*
%
%ADD10C,0.0100*%
%ADD11C,0.0060*%
%ADD12C,0.0050*%
%ADD13R,0.0320X0.0010*%
%ADD14R,0.0340X0.0010*%
%ADD15R,0.0120X0.0010*%
%ADD16R,0.0420X0.0010*%
%ADD17R,0.0560X0.0010*%
%ADD18R,0.0680X0.0010*%
%ADD19R,0.0780X0.0010*%
%ADD20R,0.0880X0.0010*%
%ADD21R,0.0960X0.0010*%
%ADD22R,0.1020X0.0010*%
%ADD23R,0.1100X0.0010*%
%ADD24R,0.1160X0.0010*%
%ADD25R,0.1220X0.0010*%
%ADD26R,0.1290X0.0010*%
%ADD27R,0.1360X0.0010*%
%ADD28R,0.1410X0.0010*%
%ADD29R,0.1450X0.0010*%
%ADD30R,0.1500X0.0010*%
%ADD31R,0.1530X0.0010*%
%ADD32R,0.1570X0.0010*%
%ADD33R,0.1630X0.0010*%
%ADD34R,0.1670X0.0010*%
%ADD35R,0.1710X0.0010*%
%ADD36R,0.1750X0.0010*%
%ADD37R,0.1790X0.0010*%
%ADD38R,0.1820X0.0010*%
%ADD39R,0.1860X0.0010*%
%ADD40R,0.1890X0.0010*%
%ADD41R,0.1930X0.0010*%
%ADD42R,0.1950X0.0010*%
%ADD43R,0.1990X0.0010*%
%ADD44R,0.2030X0.0010*%
%ADD45R,0.2050X0.0010*%
%ADD46R,0.2090X0.0010*%
%ADD47R,0.2120X0.0010*%
%ADD48R,0.0910X0.0010*%
%ADD49R,0.0860X0.0010*%
%ADD50R,0.0790X0.0010*%
%ADD51R,0.0760X0.0010*%
%ADD52R,0.0770X0.0010*%
%ADD53R,0.0740X0.0010*%
%ADD54R,0.0710X0.0010*%
%ADD55R,0.0720X0.0010*%
%ADD56R,0.0690X0.0010*%
%ADD57R,0.0670X0.0010*%
%ADD58R,0.0650X0.0010*%
%ADD59R,0.0630X0.0010*%
%ADD60R,0.0610X0.0010*%
%ADD61R,0.0050X0.0010*%
%ADD62R,0.0620X0.0010*%
%ADD63R,0.0600X0.0010*%
%ADD64R,0.0090X0.0010*%
%ADD65R,0.0080X0.0010*%
%ADD66R,0.0110X0.0010*%
%ADD67R,0.0590X0.0010*%
%ADD68R,0.0580X0.0010*%
%ADD69R,0.0150X0.0010*%
%ADD70R,0.0140X0.0010*%
%ADD71R,0.0570X0.0010*%
%ADD72R,0.0180X0.0010*%
%ADD73R,0.0190X0.0010*%
%ADD74R,0.0200X0.0010*%
%ADD75R,0.0550X0.0010*%
%ADD76R,0.0210X0.0010*%
%ADD77R,0.0220X0.0010*%
%ADD78R,0.0540X0.0010*%
%ADD79R,0.0230X0.0010*%
%ADD80R,0.0240X0.0010*%
%ADD81R,0.0250X0.0010*%
%ADD82R,0.0260X0.0010*%
%ADD83R,0.0530X0.0010*%
%ADD84R,0.0280X0.0010*%
%ADD85R,0.0270X0.0010*%
%ADD86R,0.0520X0.0010*%
%ADD87R,0.0290X0.0010*%
%ADD88R,0.0310X0.0010*%
%ADD89R,0.0300X0.0010*%
%ADD90R,0.0510X0.0010*%
%ADD91R,0.0500X0.0010*%
%ADD92R,0.0330X0.0010*%
%ADD93R,0.0350X0.0010*%
%ADD94R,0.0490X0.0010*%
%ADD95R,0.0360X0.0010*%
%ADD96R,0.0370X0.0010*%
%ADD97R,0.0480X0.0010*%
%ADD98R,0.0470X0.0010*%
%ADD99R,0.0460X0.0010*%
%ADD100R,0.0450X0.0010*%
%ADD101R,0.0440X0.0010*%
%ADD102R,0.0430X0.0010*%
%ADD103R,0.0410X0.0010*%
%ADD104R,0.0750X0.0010*%
%ADD105R,0.0640X0.0010*%
%ADD106R,0.0730X0.0010*%
%ADD107R,0.0700X0.0010*%
%ADD108R,0.0400X0.0010*%
%ADD109R,0.0830X0.0010*%
%ADD110R,0.0870X0.0010*%
%ADD111R,0.0390X0.0010*%
%ADD112R,0.0660X0.0010*%
%ADD113R,0.0990X0.0010*%
%ADD114R,0.1010X0.0010*%
%ADD115R,0.1040X0.0010*%
%ADD116R,0.1070X0.0010*%
%ADD117R,0.1130X0.0010*%
%ADD118R,0.0380X0.0010*%
%ADD119R,0.1190X0.0010*%
%ADD120R,0.0170X0.0010*%
%ADD121R,0.1250X0.0010*%
%ADD122R,0.1270X0.0010*%
%ADD123R,0.0160X0.0010*%
%ADD124R,0.1310X0.0010*%
%ADD125R,0.1330X0.0010*%
%ADD126R,0.1350X0.0010*%
%ADD127R,0.1370X0.0010*%
%ADD128R,0.1390X0.0010*%
%ADD129R,0.1430X0.0010*%
%ADD130R,0.1470X0.0010*%
%ADD131R,0.1480X0.0010*%
%ADD132R,0.1510X0.0010*%
%ADD133R,0.0030X0.0010*%
%ADD134R,0.1540X0.0010*%
%ADD135R,0.1550X0.0010*%
%ADD136R,0.1590X0.0010*%
%ADD137R,0.1600X0.0010*%
%ADD138R,0.1610X0.0010*%
%ADD139R,0.1640X0.0010*%
%ADD140R,0.1660X0.0010*%
%ADD141R,0.1680X0.0010*%
%ADD142R,0.1690X0.0010*%
%ADD143R,0.1700X0.0010*%
%ADD144R,0.1720X0.0010*%
%ADD145R,0.1230X0.0010*%
%ADD146R,0.0020X0.0010*%
%ADD147R,0.0130X0.0010*%
%ADD148R,0.0100X0.0010*%
%ADD149R,0.0040X0.0010*%
%ADD150R,0.0010X0.0010*%
%ADD151R,0.0070X0.0010*%
%ADD152R,0.0060X0.0010*%
%ADD153R,0.1340X0.0010*%
%ADD154R,0.1920X0.0010*%
%ADD155R,0.1910X0.0010*%
%ADD156R,0.1900X0.0010*%
%ADD157R,0.1880X0.0010*%
%ADD158R,0.1050X0.0010*%
%ADD159R,0.1210X0.0010*%
%ADD160R,0.1580X0.0010*%
%ADD161R,0.1730X0.0010*%
%ADD162R,0.1810X0.0010*%
%ADD163R,0.1870X0.0010*%
%ADD164R,0.1960X0.0010*%
%ADD165R,0.2130X0.0010*%
%ADD166R,0.2170X0.0010*%
%ADD167R,0.2190X0.0010*%
%ADD168R,0.2210X0.0010*%
%ADD169R,0.1080X0.0010*%
%ADD170R,0.1000X0.0010*%
%ADD171R,0.0940X0.0010*%
%ADD172R,0.0800X0.0010*%
%ADD173R,0.0810X0.0010*%
%ADD174R,0.1170X0.0010*%
%ADD175R,0.1280X0.0010*%
%ADD176R,0.1560X0.0010*%
%ADD177R,0.1520X0.0010*%
%ADD178R,0.1460X0.0010*%
%ADD179R,0.1440X0.0010*%
%ADD180R,0.0820X0.0010*%
%ADD181R,0.0930X0.0010*%
%ADD182R,0.2110X0.0010*%
%ADD183R,0.2080X0.0010*%
%ADD184R,0.2020X0.0010*%
%ADD185R,0.1850X0.0010*%
%ADD186R,0.1780X0.0010*%
%ADD187R,0.1740X0.0010*%
%ADD188R,0.1650X0.0010*%
%ADD189R,0.1490X0.0010*%
%ADD190R,0.1380X0.0010*%
D10*
X000350Y000200D02*
X000150Y000400D01*
X000150Y010400D01*
X000350Y010600D01*
X006650Y010600D01*
X006850Y010400D01*
X006850Y000400D01*
X006650Y000200D01*
X000350Y000200D01*
D11*
X006167Y004619D02*
X006507Y004619D01*
X006507Y004789D01*
X006450Y004846D01*
X006337Y004846D01*
X006280Y004789D01*
X006280Y004619D01*
X006280Y004492D02*
X006280Y004435D01*
X006337Y004435D01*
X006337Y004492D01*
X006280Y004492D01*
X006337Y004293D02*
X006507Y004293D01*
X006337Y004293D02*
X006280Y004237D01*
X006337Y004180D01*
X006280Y004123D01*
X006337Y004067D01*
X006507Y004067D01*
X006507Y003925D02*
X006337Y003925D01*
X006280Y003868D01*
X006337Y003812D01*
X006280Y003755D01*
X006337Y003698D01*
X006507Y003698D01*
X006507Y003557D02*
X006337Y003557D01*
X006280Y003500D01*
X006337Y003443D01*
X006280Y003387D01*
X006337Y003330D01*
X006507Y003330D01*
X006337Y004987D02*
X006393Y005044D01*
X006393Y005214D01*
X006450Y005214D02*
X006280Y005214D01*
X006280Y005044D01*
X006337Y004987D01*
X006507Y005044D02*
X006507Y005158D01*
X006450Y005214D01*
X006507Y005356D02*
X006507Y005469D01*
X006564Y005412D02*
X006337Y005412D01*
X006280Y005469D01*
X006337Y005658D02*
X006280Y005715D01*
X006337Y005658D02*
X006564Y005658D01*
X006507Y005601D02*
X006507Y005715D01*
X006450Y005847D02*
X006507Y005904D01*
X006507Y006017D01*
X006450Y006074D01*
X006393Y006074D01*
X006393Y005847D01*
X006337Y005847D02*
X006450Y005847D01*
X006337Y005847D02*
X006280Y005904D01*
X006280Y006017D01*
X006280Y006215D02*
X006507Y006215D01*
X006507Y006329D02*
X006507Y006385D01*
X006507Y006329D02*
X006393Y006215D01*
X006280Y006522D02*
X006507Y006522D01*
X006507Y006692D01*
X006450Y006749D01*
X006280Y006749D01*
X006337Y006890D02*
X006280Y006947D01*
X006280Y007117D01*
X006450Y007117D01*
X006507Y007061D01*
X006507Y006947D01*
X006393Y006947D02*
X006393Y007117D01*
X006337Y007259D02*
X006280Y007315D01*
X006280Y007486D01*
X006223Y007486D02*
X006507Y007486D01*
X006507Y007315D01*
X006450Y007259D01*
X006337Y007259D01*
X006167Y007372D02*
X006167Y007429D01*
X006223Y007486D01*
X006337Y007627D02*
X006280Y007684D01*
X006280Y007797D01*
X006393Y007854D02*
X006393Y007627D01*
X006337Y007627D02*
X006450Y007627D01*
X006507Y007684D01*
X006507Y007797D01*
X006450Y007854D01*
X006393Y007854D01*
X006280Y007995D02*
X006507Y007995D01*
X006507Y008165D01*
X006450Y008222D01*
X006280Y008222D01*
X006337Y008420D02*
X006280Y008477D01*
X006337Y008420D02*
X006564Y008420D01*
X006507Y008364D02*
X006507Y008477D01*
X006450Y008609D02*
X006507Y008666D01*
X006507Y008836D01*
X006393Y008779D02*
X006393Y008666D01*
X006450Y008609D01*
X006393Y008779D02*
X006337Y008836D01*
X006280Y008779D01*
X006280Y008609D01*
X006280Y008977D02*
X006280Y009034D01*
X006337Y009034D01*
X006337Y008977D01*
X006280Y008977D01*
X006337Y009162D02*
X006280Y009218D01*
X006280Y009389D01*
X006337Y009530D02*
X006280Y009587D01*
X006280Y009700D01*
X006337Y009757D01*
X006450Y009757D01*
X006507Y009700D01*
X006507Y009587D01*
X006450Y009530D01*
X006337Y009530D01*
X006507Y009389D02*
X006507Y009218D01*
X006450Y009162D01*
X006337Y009162D01*
X006280Y009898D02*
X006507Y009898D01*
X006507Y009955D01*
X006450Y010012D01*
X006507Y010068D01*
X006450Y010125D01*
X006280Y010125D01*
X006280Y010012D02*
X006450Y010012D01*
X006393Y006947D02*
X006337Y006890D01*
D12*
X001275Y006561D02*
X001275Y006380D01*
X001275Y006561D02*
X001230Y006561D01*
X001050Y006380D01*
X001005Y006380D01*
X001050Y005561D02*
X001230Y005561D01*
X001275Y005515D01*
X001275Y005425D01*
X001230Y005380D01*
X001185Y005380D01*
X001140Y005425D01*
X001140Y005561D01*
X001050Y005561D02*
X001005Y005515D01*
X001005Y005425D01*
X001050Y005380D01*
X001005Y004461D02*
X001005Y004280D01*
X001005Y004370D02*
X001275Y004370D01*
X001185Y004280D01*
X001005Y004166D02*
X001005Y003986D01*
X001005Y004076D02*
X001275Y004076D01*
X001185Y003986D01*
X001185Y003561D02*
X001140Y003515D01*
X001095Y003561D01*
X001050Y003561D01*
X001005Y003515D01*
X001005Y003425D01*
X001050Y003380D01*
X001140Y003470D02*
X001140Y003515D01*
X001185Y003561D02*
X001230Y003561D01*
X001275Y003515D01*
X001275Y003425D01*
X001230Y003380D01*
X001275Y003176D02*
X001005Y003176D01*
X001005Y003086D02*
X001005Y003266D01*
X001185Y003086D02*
X001275Y003176D01*
X001275Y002561D02*
X001275Y002380D01*
X001140Y002380D01*
X001185Y002470D01*
X001185Y002515D01*
X001140Y002561D01*
X001050Y002561D01*
X001005Y002515D01*
X001005Y002425D01*
X001050Y002380D01*
X001005Y002266D02*
X001005Y002086D01*
X001005Y002176D02*
X001275Y002176D01*
X001185Y002086D01*
X001230Y001561D02*
X001050Y001380D01*
X001005Y001380D01*
X001005Y001266D02*
X001005Y001086D01*
X001005Y001176D02*
X001275Y001176D01*
X001185Y001086D01*
X001275Y001380D02*
X001275Y001561D01*
X001230Y001561D01*
X001275Y007380D02*
X001140Y007380D01*
X001185Y007470D01*
X001185Y007515D01*
X001140Y007561D01*
X001050Y007561D01*
X001005Y007515D01*
X001005Y007425D01*
X001050Y007380D01*
X001275Y007380D02*
X001275Y007561D01*
X001230Y008280D02*
X001275Y008325D01*
X001275Y008415D01*
X001230Y008461D01*
X001185Y008461D01*
X001140Y008415D01*
X001095Y008461D01*
X001050Y008461D01*
X001005Y008415D01*
X001005Y008325D01*
X001050Y008280D01*
X001140Y008370D02*
X001140Y008415D01*
X001185Y009280D02*
X001275Y009370D01*
X001005Y009370D01*
X001005Y009280D02*
X001005Y009461D01*
D13*
X003617Y005530D03*
X002997Y004680D03*
X003177Y004070D03*
X003177Y004060D03*
X003257Y003680D03*
X003267Y003670D03*
X003557Y003760D03*
X003557Y004050D03*
X003977Y004000D03*
X003987Y003810D03*
X004407Y003760D03*
X004797Y004070D03*
X004797Y004080D03*
X004297Y002890D03*
X003667Y002890D03*
X003487Y002970D03*
X002277Y003900D03*
X002277Y003910D03*
X002277Y003920D03*
X002267Y003950D03*
X002267Y003960D03*
X002267Y003970D03*
X002267Y003980D03*
X002267Y003990D03*
X002257Y004050D03*
X002257Y004060D03*
X002257Y004070D03*
X002257Y004080D03*
X002257Y004090D03*
X002257Y004100D03*
X002257Y004350D03*
X002257Y004360D03*
X002257Y004370D03*
X002257Y004380D03*
X002257Y004390D03*
X002257Y004400D03*
X002267Y004460D03*
X002267Y004470D03*
X002267Y004480D03*
X002267Y004490D03*
X002277Y004530D03*
X002277Y004540D03*
X005687Y004550D03*
X005687Y004560D03*
X005697Y004490D03*
X005717Y004320D03*
X005717Y004310D03*
X005717Y004300D03*
X005717Y004290D03*
X005717Y004280D03*
X005717Y004270D03*
X005717Y004260D03*
X005717Y004250D03*
X005717Y004240D03*
X005717Y004230D03*
X005717Y004220D03*
X005717Y004210D03*
X005717Y004200D03*
X005717Y004190D03*
X005717Y004180D03*
X005717Y004170D03*
X005717Y004160D03*
X005717Y004150D03*
X005717Y004140D03*
X005717Y004130D03*
X005707Y002170D03*
D14*
X005707Y002180D03*
X005707Y002190D03*
X005707Y002200D03*
X005707Y002210D03*
X005707Y002220D03*
X005707Y002230D03*
X005707Y002240D03*
X005707Y002250D03*
X005707Y002260D03*
X005707Y002270D03*
X005707Y002280D03*
X005707Y002290D03*
X005707Y002300D03*
X005707Y002310D03*
X005707Y002320D03*
X005707Y002330D03*
X005707Y002340D03*
X005707Y002350D03*
X005707Y002360D03*
X005707Y002370D03*
X005707Y002380D03*
X005707Y002390D03*
X005707Y002400D03*
X005707Y002410D03*
X005707Y002420D03*
X005707Y002430D03*
X005707Y002440D03*
X005707Y002450D03*
X005707Y002460D03*
X005707Y002470D03*
X005707Y002480D03*
X005707Y002490D03*
X005707Y002500D03*
X005707Y002510D03*
X005707Y002520D03*
X005707Y002530D03*
X005707Y002540D03*
X005707Y002550D03*
X005707Y002560D03*
X005707Y002570D03*
X005707Y002580D03*
X005707Y002590D03*
X005707Y002600D03*
X005707Y002610D03*
X005707Y002620D03*
X005707Y002630D03*
X005707Y002640D03*
X005707Y002650D03*
X005707Y002660D03*
X005707Y002670D03*
X005707Y002680D03*
X005707Y002690D03*
X005707Y002700D03*
X005707Y002710D03*
X005707Y002720D03*
X005707Y002730D03*
X005707Y002740D03*
X005707Y002750D03*
X005707Y002760D03*
X005707Y002770D03*
X005707Y002780D03*
X005707Y002790D03*
X005707Y002800D03*
X005707Y002810D03*
X005707Y002820D03*
X005707Y002830D03*
X005707Y002840D03*
X005707Y002850D03*
X005707Y002860D03*
X005707Y002870D03*
X005707Y002880D03*
X005707Y002890D03*
X005707Y002900D03*
X005707Y002910D03*
X005707Y002920D03*
X005707Y002930D03*
X005707Y002940D03*
X005707Y002950D03*
X005707Y002960D03*
X005707Y002970D03*
X005707Y002980D03*
X005707Y002990D03*
X005707Y003000D03*
X005707Y003010D03*
X005707Y003020D03*
X005707Y003030D03*
X005707Y003040D03*
X005707Y003050D03*
X005707Y003060D03*
X005707Y003070D03*
X005707Y003080D03*
X005707Y003090D03*
X005707Y003100D03*
X005707Y003110D03*
X005707Y003960D03*
X005707Y003970D03*
X005707Y003980D03*
X005707Y003990D03*
X005707Y004000D03*
X005707Y004010D03*
X005647Y004710D03*
X005647Y004720D03*
X005637Y004740D03*
X005637Y004750D03*
X005637Y004760D03*
X005627Y004770D03*
X005627Y004780D03*
X005627Y004790D03*
X005617Y004810D03*
X005607Y004830D03*
X005607Y004840D03*
X005597Y004860D03*
X004957Y004690D03*
X004777Y004110D03*
X004687Y003650D03*
X004427Y002950D03*
X004317Y002900D03*
X003987Y003790D03*
X003987Y004030D03*
X003557Y004040D03*
X003287Y003650D03*
X003187Y004090D03*
X003187Y004100D03*
X002317Y003750D03*
X002317Y003740D03*
X002327Y003720D03*
X002327Y003710D03*
X002327Y003700D03*
X002337Y003680D03*
X002347Y003650D03*
X002357Y003620D03*
X002297Y003820D03*
X002297Y004630D03*
X002307Y004670D03*
X002317Y004700D03*
X002317Y004710D03*
X002327Y004730D03*
X002327Y004740D03*
X002327Y004750D03*
X002337Y004770D03*
X002347Y004790D03*
X002347Y004800D03*
X002357Y004830D03*
X003617Y005520D03*
D15*
X003677Y004020D03*
X003557Y003920D03*
X003557Y003910D03*
X003557Y003900D03*
X003557Y003890D03*
X003557Y003710D03*
X003677Y003790D03*
X003907Y003850D03*
X004287Y003790D03*
X004297Y003780D03*
X004407Y003870D03*
X004407Y003920D03*
X004407Y003930D03*
X004297Y004030D03*
X004537Y004020D03*
X004537Y003790D03*
X004887Y004790D03*
X005337Y003980D03*
X005347Y003950D03*
X005357Y003920D03*
X004087Y002790D03*
X003977Y002330D03*
X002617Y003940D03*
D16*
X002957Y003440D03*
X002967Y003430D03*
X002977Y003420D03*
X002667Y003100D03*
X002677Y003090D03*
X002657Y003110D03*
X002647Y003120D03*
X002627Y003150D03*
X003977Y002340D03*
X004987Y003420D03*
X004997Y003430D03*
X005307Y003110D03*
X005297Y003100D03*
X005667Y003660D03*
X005667Y003670D03*
X005667Y003680D03*
X004927Y004670D03*
X005347Y005290D03*
X005337Y005300D03*
X005327Y005310D03*
X004437Y005340D03*
X004357Y005520D03*
X003987Y005360D03*
X003617Y005480D03*
X003987Y006110D03*
X002657Y005330D03*
X002647Y005320D03*
X002637Y005310D03*
X002627Y005300D03*
X002617Y005280D03*
X002607Y005270D03*
X003997Y004080D03*
D17*
X003987Y003670D03*
X003987Y003150D03*
X003987Y002350D03*
X002977Y002830D03*
X002967Y005610D03*
X004987Y005620D03*
X005597Y003390D03*
X004977Y002820D03*
D18*
X005537Y003220D03*
X003977Y002360D03*
X003387Y004300D03*
X003167Y004590D03*
X003157Y005720D03*
X004807Y005720D03*
D19*
X004707Y005760D03*
X003987Y003190D03*
X003977Y002370D03*
D20*
X003977Y002380D03*
X004687Y004570D03*
D21*
X003987Y003230D03*
X003987Y002390D03*
D22*
X003987Y002400D03*
D23*
X003977Y002410D03*
X003987Y003280D03*
D24*
X003987Y003300D03*
X003977Y002420D03*
X003987Y006030D03*
D25*
X003987Y006020D03*
X003977Y004870D03*
X003987Y003320D03*
X003977Y002430D03*
D26*
X003982Y002440D03*
X003982Y003350D03*
D27*
X003987Y002450D03*
D28*
X003982Y002460D03*
X003982Y003410D03*
X003992Y004900D03*
D29*
X003982Y005190D03*
X003982Y003430D03*
X003982Y002470D03*
D30*
X003977Y002480D03*
X003987Y003460D03*
X003977Y005110D03*
X003977Y005120D03*
D31*
X003972Y005070D03*
X003972Y005060D03*
X004002Y004920D03*
X003982Y005960D03*
X003982Y003480D03*
X003982Y002490D03*
D32*
X003982Y002500D03*
X003982Y003510D03*
X003972Y004980D03*
X003972Y004990D03*
X003972Y005000D03*
X003982Y005950D03*
D33*
X003982Y003550D03*
X003982Y002510D03*
D34*
X003982Y002520D03*
X003982Y003580D03*
X003982Y004430D03*
D35*
X003982Y003620D03*
X003982Y002530D03*
D36*
X003982Y002540D03*
D37*
X003982Y002550D03*
D38*
X003987Y002560D03*
D39*
X003977Y002570D03*
D40*
X003982Y002580D03*
X003982Y004270D03*
X003982Y004280D03*
X003982Y005870D03*
D41*
X003982Y002590D03*
D42*
X003982Y002600D03*
X003982Y005850D03*
D43*
X003982Y005840D03*
X003982Y004480D03*
X003982Y002610D03*
D44*
X003982Y002620D03*
X003982Y004490D03*
D45*
X003982Y005820D03*
X003982Y002630D03*
D46*
X003982Y002640D03*
X003982Y004500D03*
D47*
X003987Y002650D03*
D48*
X003982Y003220D03*
X003362Y002660D03*
X004602Y002660D03*
X003972Y004830D03*
D49*
X004637Y005780D03*
X003987Y006070D03*
X003327Y002670D03*
X004647Y002670D03*
D50*
X004692Y002680D03*
X003272Y002680D03*
X003262Y005760D03*
X003982Y006080D03*
D51*
X003237Y005750D03*
X004717Y002690D03*
X005497Y003130D03*
X005497Y003140D03*
D52*
X005492Y003120D03*
X003252Y002690D03*
D53*
X003227Y002700D03*
X003987Y003180D03*
X004747Y002700D03*
X005507Y003160D03*
X004767Y004590D03*
D54*
X005522Y003190D03*
X004772Y002710D03*
D55*
X005517Y003180D03*
X003977Y004170D03*
X003967Y004810D03*
X004757Y005740D03*
X003197Y002710D03*
D56*
X003172Y002720D03*
X004582Y004300D03*
X005532Y003210D03*
X004792Y002720D03*
D57*
X004812Y002730D03*
X005542Y003230D03*
X004812Y004610D03*
X004832Y005710D03*
X003602Y005220D03*
X003142Y005710D03*
X003132Y002740D03*
X003152Y002730D03*
D58*
X003112Y002750D03*
X004832Y002740D03*
X004852Y002750D03*
X005552Y003260D03*
X003112Y005700D03*
D59*
X003092Y005690D03*
X003582Y005230D03*
X003982Y004160D03*
X004312Y005400D03*
X004872Y005690D03*
X004892Y005680D03*
X005562Y003290D03*
X005562Y003280D03*
X004872Y002760D03*
X003092Y002760D03*
D60*
X003982Y004360D03*
X004382Y005230D03*
X004922Y005660D03*
X003582Y005240D03*
X003062Y005670D03*
X004892Y002770D03*
X005572Y003310D03*
D61*
X004852Y004810D03*
X004412Y003850D03*
X004042Y002770D03*
X003932Y002770D03*
D62*
X003077Y002770D03*
X004837Y004620D03*
X004907Y005670D03*
X005567Y003300D03*
X003077Y005680D03*
D63*
X003047Y005660D03*
X003117Y004610D03*
X004317Y005410D03*
X004937Y005650D03*
X005577Y003330D03*
X005577Y003320D03*
X004927Y002790D03*
X004907Y002780D03*
X003057Y002780D03*
D64*
X003402Y003830D03*
X003392Y003850D03*
X003392Y003860D03*
X003382Y003890D03*
X003382Y003900D03*
X003382Y003910D03*
X003382Y003920D03*
X003382Y003930D03*
X003392Y003960D03*
X003392Y003970D03*
X003552Y003950D03*
X003562Y004170D03*
X003722Y003970D03*
X003722Y003960D03*
X003732Y003940D03*
X003732Y003930D03*
X003732Y003920D03*
X003732Y003910D03*
X003732Y003900D03*
X003732Y003890D03*
X003732Y003880D03*
X003732Y003870D03*
X003732Y003860D03*
X003722Y003850D03*
X003722Y003840D03*
X004232Y003890D03*
X004232Y003900D03*
X004232Y003910D03*
X004232Y003920D03*
X004242Y003950D03*
X004242Y003960D03*
X004252Y003980D03*
X004242Y003870D03*
X004242Y003860D03*
X004242Y003850D03*
X004572Y003850D03*
X004572Y003840D03*
X004582Y003860D03*
X004582Y003870D03*
X004582Y003940D03*
X004582Y003950D03*
X004572Y003970D03*
X004872Y004800D03*
X003612Y005610D03*
X002952Y004420D03*
X004062Y002780D03*
D65*
X003907Y002780D03*
X003557Y003860D03*
X003387Y003870D03*
X003387Y003880D03*
X003387Y003940D03*
X003387Y003950D03*
X003087Y004800D03*
X003977Y005300D03*
X004237Y003940D03*
X004237Y003930D03*
X004237Y003880D03*
X004407Y003860D03*
X004587Y003880D03*
X004587Y003890D03*
X004587Y003900D03*
X004587Y003910D03*
X004587Y003920D03*
X004587Y003930D03*
X004577Y003960D03*
D66*
X004562Y003820D03*
X004552Y003810D03*
X004542Y003800D03*
X004272Y003800D03*
X004272Y004010D03*
X004282Y004020D03*
X003982Y004350D03*
X003692Y004010D03*
X003702Y004000D03*
X003552Y003930D03*
X003562Y003880D03*
X003432Y003790D03*
X003422Y003800D03*
X003412Y004000D03*
X003422Y004010D03*
X003432Y004020D03*
X003692Y003800D03*
X003702Y003810D03*
X003882Y002790D03*
X004382Y005640D03*
X003982Y006120D03*
D67*
X004322Y005420D03*
X004392Y005240D03*
X004952Y005640D03*
X003992Y003660D03*
X003042Y002790D03*
X003022Y002800D03*
X003572Y005250D03*
X003032Y005650D03*
X005582Y003340D03*
D68*
X005587Y003350D03*
X005587Y003360D03*
X004947Y002800D03*
X003987Y004150D03*
X004327Y005430D03*
X004857Y004630D03*
X003017Y005640D03*
X003007Y002810D03*
D69*
X002702Y004130D03*
X002712Y004150D03*
X002722Y004160D03*
X002732Y004180D03*
X002742Y004190D03*
X002752Y004200D03*
X002762Y004220D03*
X002772Y004230D03*
X002782Y004240D03*
X004112Y002800D03*
X004502Y003770D03*
X004802Y003360D03*
X005272Y004120D03*
X005262Y004140D03*
X005252Y004150D03*
X005242Y004170D03*
X005232Y004180D03*
X005222Y004200D03*
X005212Y004210D03*
X005202Y004220D03*
X005002Y004410D03*
X005352Y003890D03*
D70*
X005357Y003900D03*
X005317Y004030D03*
X005287Y004090D03*
X005287Y004100D03*
X005277Y004110D03*
X005267Y004130D03*
X005247Y004160D03*
X005227Y004190D03*
X004907Y004780D03*
X003987Y003110D03*
X003857Y002800D03*
X003667Y003780D03*
X003167Y003360D03*
X002667Y004070D03*
X002677Y004090D03*
X002687Y004100D03*
X002687Y004110D03*
X002697Y004120D03*
X002707Y004140D03*
X002727Y004170D03*
X002657Y004050D03*
X002647Y004020D03*
X002617Y003890D03*
X002957Y004410D03*
X003037Y004770D03*
X003607Y005600D03*
D71*
X003572Y005260D03*
X002992Y005630D03*
X002982Y005620D03*
X004402Y005250D03*
X004972Y005630D03*
X004662Y004180D03*
X005592Y003380D03*
X005592Y003370D03*
X004962Y002810D03*
X002992Y002820D03*
D72*
X002957Y003300D03*
X002947Y003310D03*
X002937Y003320D03*
X002957Y003550D03*
X002947Y003560D03*
X002937Y003570D03*
X002927Y003580D03*
X002887Y003610D03*
X002877Y003620D03*
X002867Y003630D03*
X002857Y003640D03*
X002847Y003650D03*
X002837Y003660D03*
X002827Y003670D03*
X002817Y003680D03*
X002627Y003860D03*
X002827Y004280D03*
X002837Y004290D03*
X002847Y004300D03*
X002857Y004310D03*
X003017Y004750D03*
X003187Y003860D03*
X003827Y002810D03*
X004137Y002810D03*
X004997Y003290D03*
X005007Y003300D03*
X005017Y003310D03*
X005047Y003580D03*
X005057Y003590D03*
X005067Y003600D03*
X005077Y003610D03*
X005087Y003620D03*
X005097Y003630D03*
X005107Y003640D03*
X005147Y004280D03*
X005137Y004290D03*
X005127Y004300D03*
X004927Y004760D03*
X003607Y005590D03*
D73*
X002872Y004320D03*
X002752Y003740D03*
X002762Y003730D03*
X002772Y003720D03*
X002782Y003710D03*
X002792Y003700D03*
X002802Y003690D03*
X002972Y003290D03*
X002982Y003280D03*
X002992Y003270D03*
X003002Y003260D03*
X004162Y002820D03*
X004952Y003250D03*
X004962Y003260D03*
X004972Y003270D03*
X004982Y003280D03*
X005122Y003650D03*
X005132Y003660D03*
X005142Y003670D03*
X005152Y003680D03*
X005162Y003690D03*
X005172Y003700D03*
X005182Y003710D03*
X005192Y003720D03*
X005202Y003730D03*
X005342Y003860D03*
X005112Y004310D03*
D74*
X005097Y004320D03*
X004997Y004400D03*
X004937Y004750D03*
X005337Y003850D03*
X005237Y003760D03*
X005227Y003750D03*
X005217Y003740D03*
X004937Y003240D03*
X004927Y003230D03*
X004917Y003220D03*
X004407Y003720D03*
X003807Y002820D03*
X003557Y003720D03*
X003557Y004090D03*
X002967Y004400D03*
X002887Y004330D03*
X002717Y003770D03*
X002727Y003760D03*
X002737Y003750D03*
X003017Y003250D03*
X003027Y003240D03*
X003037Y003230D03*
X003067Y003210D03*
X003987Y005310D03*
X003827Y005400D03*
X004377Y005620D03*
D75*
X004332Y005440D03*
X003982Y006100D03*
X003562Y005270D03*
X003092Y004620D03*
X003322Y004310D03*
X003982Y004140D03*
X004642Y004310D03*
X005002Y005610D03*
X005602Y003410D03*
X005602Y003400D03*
X004992Y002830D03*
X002962Y002840D03*
X002952Y005600D03*
D76*
X003002Y004740D03*
X002992Y004730D03*
X002902Y004340D03*
X002632Y003850D03*
X002682Y003800D03*
X002692Y003790D03*
X002702Y003780D03*
X003052Y003220D03*
X003082Y003200D03*
X004182Y002830D03*
X004872Y003190D03*
X004902Y003210D03*
X004832Y003370D03*
X005252Y003770D03*
X005262Y003780D03*
X005292Y003800D03*
X005302Y003810D03*
X005312Y003820D03*
X005322Y003830D03*
X005332Y003840D03*
X005082Y004330D03*
X004412Y004090D03*
X003612Y005580D03*
D77*
X002987Y004720D03*
X002917Y004350D03*
X002637Y003840D03*
X002647Y003830D03*
X002657Y003820D03*
X002667Y003810D03*
X003137Y003370D03*
X003097Y003190D03*
X003107Y003180D03*
X003127Y003170D03*
X003137Y003160D03*
X003787Y002830D03*
X004817Y003150D03*
X004847Y003170D03*
X004857Y003180D03*
X004887Y003200D03*
X004797Y003800D03*
X004807Y003840D03*
X004817Y003850D03*
X005067Y004340D03*
X005047Y004350D03*
X005277Y003790D03*
D78*
X005607Y003430D03*
X005607Y003420D03*
X005017Y002850D03*
X005007Y002840D03*
X004407Y005260D03*
X004337Y005450D03*
X005017Y005600D03*
X005027Y005590D03*
X005047Y005580D03*
X003637Y005410D03*
X002937Y005590D03*
X002927Y005580D03*
X002947Y002850D03*
D79*
X003162Y003140D03*
X003152Y003150D03*
X003182Y003130D03*
X003192Y003120D03*
X003562Y003730D03*
X003172Y003820D03*
X003162Y003840D03*
X003162Y003850D03*
X003952Y004790D03*
X004412Y004080D03*
X004412Y003730D03*
X004782Y003760D03*
X004782Y003770D03*
X004792Y003780D03*
X004792Y003790D03*
X004802Y003810D03*
X004802Y003820D03*
X004802Y003830D03*
X004832Y003160D03*
X004802Y003140D03*
X004792Y003130D03*
X004772Y003120D03*
X004742Y003100D03*
X004202Y002840D03*
X004962Y004730D03*
X004952Y004740D03*
X004382Y005610D03*
X003612Y005570D03*
D80*
X002977Y004710D03*
X003177Y004350D03*
X003167Y003830D03*
X003177Y003810D03*
X003177Y003800D03*
X003187Y003790D03*
X003187Y003780D03*
X003557Y004080D03*
X003207Y003110D03*
X003227Y003100D03*
X003247Y003090D03*
X003767Y002840D03*
X004707Y003080D03*
X004727Y003090D03*
X004757Y003110D03*
X004767Y003730D03*
X004767Y003740D03*
X004777Y003750D03*
X004827Y003940D03*
X004827Y003950D03*
X004827Y003960D03*
X004967Y004720D03*
D81*
X004982Y004390D03*
X004792Y004350D03*
X004822Y003980D03*
X004822Y003970D03*
X004762Y003720D03*
X004752Y003710D03*
X004692Y003070D03*
X004672Y003060D03*
X004652Y003050D03*
X004222Y002850D03*
X003292Y003060D03*
X003282Y003070D03*
X003262Y003080D03*
X003152Y003950D03*
X002982Y004390D03*
D82*
X002977Y004700D03*
X003157Y003970D03*
X003157Y003960D03*
X003197Y003770D03*
X003207Y003750D03*
X003557Y003740D03*
X003557Y004070D03*
X003317Y003050D03*
X003337Y003040D03*
X003747Y002850D03*
X004817Y003990D03*
X004817Y004000D03*
X004857Y003380D03*
X004967Y004710D03*
X004377Y005600D03*
X003987Y005320D03*
X003617Y005560D03*
D83*
X003562Y005280D03*
X002912Y005570D03*
X003982Y003680D03*
X004882Y004640D03*
X004412Y005270D03*
X005062Y005570D03*
X005612Y003440D03*
X005032Y002860D03*
X002932Y002860D03*
X002922Y002870D03*
D84*
X003377Y003020D03*
X003227Y003720D03*
X003217Y003730D03*
X003157Y003990D03*
X003987Y003950D03*
X004587Y003020D03*
X004577Y003010D03*
X004607Y003030D03*
X004247Y002860D03*
X004727Y003680D03*
X004737Y003690D03*
X004807Y004020D03*
X004807Y004030D03*
X003617Y005550D03*
D85*
X004412Y004070D03*
X004412Y003740D03*
X004742Y003700D03*
X004812Y004010D03*
X004632Y003040D03*
X003722Y002860D03*
X003352Y003030D03*
X003212Y003740D03*
X003202Y003760D03*
X003162Y003980D03*
D86*
X003077Y004630D03*
X003637Y005420D03*
X004337Y005460D03*
X005077Y005560D03*
X005087Y005550D03*
X003987Y004130D03*
X002907Y002880D03*
X002897Y005560D03*
X005057Y002880D03*
X005047Y002870D03*
X005617Y003450D03*
X005617Y003460D03*
D87*
X004802Y004040D03*
X004412Y004060D03*
X004412Y003750D03*
X003982Y003970D03*
X003982Y003980D03*
X004552Y003000D03*
X004262Y002870D03*
X003702Y002870D03*
X003392Y003010D03*
X003232Y003710D03*
X003162Y004000D03*
X003162Y004010D03*
X003162Y004020D03*
X003162Y004030D03*
X002982Y004690D03*
X004372Y005590D03*
D88*
X004372Y005580D03*
X003992Y005330D03*
X004762Y004340D03*
X004802Y004060D03*
X004972Y004380D03*
X004702Y003660D03*
X004412Y004050D03*
X003992Y003830D03*
X003992Y003820D03*
X003982Y003990D03*
X004482Y002970D03*
X004502Y002980D03*
X004282Y002880D03*
X003462Y002980D03*
X003172Y004050D03*
D89*
X003167Y004040D03*
X003207Y004340D03*
X002997Y004380D03*
X003237Y003700D03*
X003247Y003690D03*
X003557Y003750D03*
X003557Y004060D03*
X003987Y003960D03*
X003987Y003840D03*
X004527Y002990D03*
X004717Y003670D03*
X004797Y004050D03*
X004967Y004700D03*
X003687Y002880D03*
X003437Y002990D03*
X003417Y003000D03*
X003617Y005540D03*
D90*
X003632Y005430D03*
X003552Y005290D03*
X002882Y005550D03*
X002872Y005540D03*
X003992Y004120D03*
X003982Y003690D03*
X002892Y002890D03*
X002882Y002900D03*
X004422Y005280D03*
X005102Y005540D03*
X005622Y003470D03*
X005072Y002890D03*
D91*
X005087Y002900D03*
X005097Y002910D03*
X005627Y003480D03*
X005627Y003490D03*
X005627Y003500D03*
X004897Y004650D03*
X005107Y005530D03*
X004347Y005470D03*
X003997Y005390D03*
X003957Y004800D03*
X003987Y004110D03*
X002857Y002920D03*
X002867Y002910D03*
X002837Y005510D03*
X002847Y005520D03*
X002857Y005530D03*
D92*
X002322Y004720D03*
X002312Y004690D03*
X002312Y004680D03*
X002302Y004660D03*
X002302Y004650D03*
X002302Y004640D03*
X002292Y004620D03*
X002292Y004610D03*
X002292Y004600D03*
X002292Y004590D03*
X002282Y004580D03*
X002282Y004570D03*
X002282Y004560D03*
X002282Y004550D03*
X002272Y004520D03*
X002272Y004510D03*
X002272Y004500D03*
X002262Y004450D03*
X002262Y004440D03*
X002262Y004430D03*
X002262Y004420D03*
X002262Y004410D03*
X002252Y004340D03*
X002252Y004330D03*
X002252Y004320D03*
X002252Y004310D03*
X002252Y004300D03*
X002252Y004290D03*
X002252Y004280D03*
X002252Y004270D03*
X002252Y004260D03*
X002252Y004250D03*
X002252Y004240D03*
X002252Y004230D03*
X002252Y004220D03*
X002252Y004210D03*
X002252Y004200D03*
X002252Y004190D03*
X002252Y004180D03*
X002252Y004170D03*
X002252Y004160D03*
X002252Y004150D03*
X002252Y004140D03*
X002252Y004130D03*
X002252Y004120D03*
X002252Y004110D03*
X002262Y004040D03*
X002262Y004030D03*
X002262Y004020D03*
X002262Y004010D03*
X002262Y004000D03*
X002272Y003940D03*
X002272Y003930D03*
X002282Y003890D03*
X002282Y003880D03*
X002282Y003870D03*
X002292Y003860D03*
X002292Y003850D03*
X002292Y003840D03*
X002292Y003830D03*
X002302Y003810D03*
X002302Y003800D03*
X002302Y003790D03*
X002302Y003780D03*
X002312Y003770D03*
X002312Y003760D03*
X002322Y003730D03*
X003182Y004080D03*
X003272Y003660D03*
X003512Y002960D03*
X003652Y002900D03*
X003992Y003800D03*
X003982Y004010D03*
X003982Y004020D03*
X004412Y004040D03*
X004782Y004100D03*
X004792Y004090D03*
X004452Y002960D03*
X005662Y004650D03*
X005662Y004660D03*
X005662Y004670D03*
X005662Y004680D03*
X005652Y004690D03*
X005652Y004700D03*
X005642Y004730D03*
X005672Y004640D03*
X005672Y004630D03*
X005672Y004620D03*
X005672Y004610D03*
X005682Y004600D03*
X005682Y004590D03*
X005682Y004580D03*
X005682Y004570D03*
X005692Y004540D03*
X005692Y004530D03*
X005692Y004520D03*
X005692Y004510D03*
X005692Y004500D03*
X005702Y004480D03*
X005702Y004470D03*
X005702Y004460D03*
X005702Y004450D03*
X005702Y004440D03*
X005702Y004430D03*
X005712Y004420D03*
X005712Y004410D03*
X005712Y004400D03*
X005712Y004390D03*
X005712Y004380D03*
X005712Y004370D03*
X005712Y004360D03*
X005712Y004350D03*
X005712Y004340D03*
X005712Y004330D03*
X005712Y004120D03*
X005712Y004110D03*
X005712Y004100D03*
X005712Y004090D03*
X005712Y004080D03*
X005712Y004070D03*
X005712Y004060D03*
X005712Y004050D03*
X005712Y004040D03*
X005712Y004030D03*
X005712Y004020D03*
X004372Y005570D03*
D93*
X004362Y005560D03*
X003992Y005340D03*
X003612Y005510D03*
X003192Y004110D03*
X003542Y002950D03*
X003632Y002910D03*
X003982Y003120D03*
X004332Y002910D03*
X004352Y002920D03*
X003982Y004040D03*
X002402Y003510D03*
X002392Y003540D03*
X002382Y003560D03*
X002382Y003570D03*
X002372Y003580D03*
X002372Y003590D03*
X002362Y003600D03*
X002362Y003610D03*
X002352Y003630D03*
X002352Y003640D03*
X002342Y003660D03*
X002342Y003670D03*
X002332Y003690D03*
X002332Y004760D03*
X002342Y004780D03*
X002352Y004810D03*
X002352Y004820D03*
X002362Y004840D03*
X002362Y004850D03*
X002372Y004860D03*
X002372Y004870D03*
X002382Y004880D03*
X002382Y004890D03*
X002392Y004910D03*
X002412Y004960D03*
X005562Y004940D03*
X005572Y004920D03*
X005572Y004910D03*
X005582Y004900D03*
X005582Y004890D03*
X005592Y004880D03*
X005592Y004870D03*
X005602Y004850D03*
X005612Y004820D03*
X005622Y004800D03*
X005702Y003950D03*
X005702Y003940D03*
X005702Y003930D03*
X005702Y003920D03*
X005702Y003910D03*
X005702Y003900D03*
X005702Y003890D03*
D94*
X005632Y003520D03*
X005632Y003510D03*
X005122Y002930D03*
X005112Y002920D03*
X003982Y003140D03*
X003982Y003700D03*
X004422Y005290D03*
X005122Y005520D03*
X005132Y005510D03*
X005142Y005500D03*
X003632Y005440D03*
X003552Y005300D03*
X002822Y005500D03*
X002812Y005490D03*
X002832Y002940D03*
X002842Y002930D03*
D95*
X002437Y003440D03*
X002427Y003460D03*
X002417Y003470D03*
X002417Y003480D03*
X002407Y003490D03*
X002407Y003500D03*
X002397Y003520D03*
X002397Y003530D03*
X002387Y003550D03*
X003007Y004670D03*
X002427Y004980D03*
X002427Y004990D03*
X002437Y005000D03*
X002437Y005010D03*
X002417Y004970D03*
X002407Y004950D03*
X002407Y004940D03*
X002397Y004930D03*
X002397Y004920D03*
X002387Y004900D03*
X003537Y005390D03*
X003537Y005400D03*
X004367Y005550D03*
X004447Y005390D03*
X004767Y004120D03*
X005527Y005010D03*
X005537Y005000D03*
X005537Y004990D03*
X005547Y004980D03*
X005547Y004970D03*
X005557Y004960D03*
X005557Y004950D03*
X005567Y004930D03*
X005517Y005030D03*
X005697Y003880D03*
X005697Y003870D03*
X005697Y003860D03*
X005697Y003850D03*
X004397Y002940D03*
X003987Y003770D03*
X003987Y003780D03*
X003987Y004050D03*
X003617Y002920D03*
D96*
X003602Y002930D03*
X003572Y002940D03*
X004372Y002930D03*
X004662Y003640D03*
X004762Y004130D03*
X004952Y004370D03*
X005522Y005020D03*
X005512Y005040D03*
X005502Y005050D03*
X005502Y005060D03*
X005492Y005070D03*
X005492Y005080D03*
X005482Y005090D03*
X005692Y003840D03*
X005692Y003830D03*
X005692Y003820D03*
X005692Y003810D03*
X003612Y005500D03*
X003012Y004370D03*
X003242Y004330D03*
X003202Y004120D03*
X002452Y003420D03*
X002452Y003410D03*
X002462Y003400D03*
X002462Y003390D03*
X002472Y003380D03*
X002482Y003360D03*
X002492Y003340D03*
X002442Y003430D03*
X002432Y003450D03*
X002442Y005020D03*
X002452Y005030D03*
X002452Y005040D03*
X002462Y005050D03*
X002472Y005060D03*
X002472Y005070D03*
X002482Y005080D03*
X002482Y005090D03*
X002492Y005100D03*
D97*
X002807Y005480D03*
X003547Y005310D03*
X003997Y005380D03*
X004347Y005480D03*
X004427Y005300D03*
X005157Y005490D03*
X005167Y005480D03*
X005177Y005470D03*
X005637Y003540D03*
X005637Y003530D03*
X005157Y002960D03*
X005147Y002950D03*
X005137Y002940D03*
X002817Y002950D03*
X002807Y002960D03*
X002797Y002970D03*
D98*
X003052Y004640D03*
X002782Y005460D03*
X002792Y005470D03*
X003622Y005450D03*
X004352Y005490D03*
X004432Y005310D03*
X005192Y005460D03*
X005202Y005450D03*
X005212Y005440D03*
X005642Y003560D03*
X005642Y003550D03*
X005192Y002990D03*
X005182Y002980D03*
X005172Y002970D03*
D99*
X005207Y003000D03*
X005647Y003570D03*
X005647Y003580D03*
X004907Y004660D03*
X005217Y005430D03*
X003987Y004100D03*
X003977Y003710D03*
X003257Y004170D03*
X003547Y005320D03*
X002767Y005450D03*
X002757Y005440D03*
X002747Y005430D03*
X002737Y005420D03*
X002767Y003000D03*
X002777Y002990D03*
X002787Y002980D03*
D100*
X002752Y003010D03*
X002742Y003020D03*
X002732Y003030D03*
X002722Y003040D03*
X003242Y004160D03*
X003272Y004320D03*
X003542Y005330D03*
X003622Y005460D03*
X003992Y005370D03*
X004352Y005500D03*
X004432Y005320D03*
X004692Y004320D03*
X005252Y005400D03*
X005242Y005410D03*
X005232Y005420D03*
X005652Y003600D03*
X005652Y003590D03*
X005252Y003050D03*
X005242Y003040D03*
X005232Y003030D03*
X005222Y003020D03*
X005212Y003010D03*
X002732Y005410D03*
X002722Y005400D03*
X002712Y005390D03*
X002702Y005380D03*
D101*
X003037Y004650D03*
X003547Y005340D03*
X003987Y004090D03*
X004727Y004170D03*
X004957Y003390D03*
X005267Y003070D03*
X005257Y003060D03*
X005657Y003610D03*
X005657Y003620D03*
X005657Y003630D03*
X005287Y005360D03*
X005277Y005370D03*
X005267Y005380D03*
X005257Y005390D03*
X004437Y005330D03*
X003017Y003380D03*
X003007Y003390D03*
X002997Y003400D03*
X002697Y003070D03*
X002707Y003060D03*
X002717Y003050D03*
D102*
X002682Y003080D03*
X002992Y003410D03*
X003032Y004360D03*
X002662Y005340D03*
X002672Y005350D03*
X002682Y005360D03*
X002692Y005370D03*
X003542Y005350D03*
X003622Y005470D03*
X004352Y005510D03*
X004932Y004360D03*
X005322Y005320D03*
X005312Y005330D03*
X005302Y005340D03*
X005292Y005350D03*
X005662Y003650D03*
X005662Y003640D03*
X005292Y003090D03*
X005282Y003080D03*
X004972Y003400D03*
X004982Y003410D03*
X003982Y003720D03*
D103*
X003982Y003730D03*
X003982Y003130D03*
X003222Y004150D03*
X002952Y003450D03*
X002622Y003160D03*
X002612Y003170D03*
X002602Y003180D03*
X002632Y003140D03*
X002642Y003130D03*
X002592Y005250D03*
X002602Y005260D03*
X002622Y005290D03*
X003542Y005360D03*
X004442Y005350D03*
X004742Y004160D03*
X005032Y003460D03*
X005022Y003450D03*
X005012Y003440D03*
X005672Y003690D03*
X005672Y003700D03*
X005672Y003710D03*
X005392Y005230D03*
X005382Y005240D03*
X005362Y005270D03*
X005352Y005280D03*
D104*
X004732Y005750D03*
X005502Y003150D03*
D105*
X005557Y003270D03*
X004377Y005220D03*
X003977Y003650D03*
X003987Y003160D03*
X003137Y004600D03*
D106*
X003192Y004580D03*
X003212Y005740D03*
X005512Y003170D03*
D107*
X005527Y003200D03*
X004787Y004600D03*
X004347Y005210D03*
X004787Y005730D03*
X003617Y005210D03*
X003177Y005730D03*
X003987Y003170D03*
D108*
X003987Y003740D03*
X004747Y004150D03*
X005037Y003470D03*
X005677Y003720D03*
X005677Y003730D03*
X005407Y005210D03*
X005397Y005220D03*
X005377Y005250D03*
X005367Y005260D03*
X003217Y004140D03*
X002927Y003470D03*
X002937Y003460D03*
X002597Y003190D03*
X002587Y003200D03*
X002577Y003210D03*
X002567Y003230D03*
X002557Y003240D03*
X002537Y003270D03*
X002567Y005220D03*
X002577Y005230D03*
X002587Y005240D03*
D109*
X003962Y004820D03*
X003982Y003200D03*
D110*
X003982Y003210D03*
X003982Y004370D03*
X003272Y004560D03*
X003332Y005780D03*
D111*
X003612Y005490D03*
X003542Y005370D03*
X003992Y005350D03*
X004362Y005530D03*
X004442Y005370D03*
X004442Y005360D03*
X004752Y004140D03*
X003992Y004070D03*
X003212Y004130D03*
X003022Y004660D03*
X002532Y005170D03*
X002542Y005180D03*
X002542Y005190D03*
X002552Y005200D03*
X002562Y005210D03*
X002512Y005140D03*
X002502Y003320D03*
X002512Y003310D03*
X002522Y003290D03*
X002532Y003280D03*
X002542Y003260D03*
X002552Y003250D03*
X002572Y003220D03*
X005452Y005140D03*
X005442Y005160D03*
X005432Y005170D03*
X005432Y005180D03*
X005422Y005190D03*
X005412Y005200D03*
X005682Y003760D03*
X005682Y003750D03*
X005682Y003740D03*
D112*
X005547Y003250D03*
X005547Y003240D03*
X004847Y005700D03*
X003987Y006090D03*
D113*
X003972Y004840D03*
X003982Y003240D03*
D114*
X003982Y003250D03*
X003982Y006050D03*
D115*
X003987Y003260D03*
D116*
X003982Y003270D03*
D117*
X003982Y003290D03*
D118*
X003987Y003750D03*
X003987Y003760D03*
X003987Y004060D03*
X004727Y004330D03*
X004937Y004680D03*
X005457Y005130D03*
X005467Y005120D03*
X005467Y005110D03*
X005477Y005100D03*
X005447Y005150D03*
X005687Y003800D03*
X005687Y003790D03*
X005687Y003780D03*
X005687Y003770D03*
X004447Y005380D03*
X004367Y005540D03*
X003537Y005380D03*
X002527Y005160D03*
X002517Y005150D03*
X002507Y005130D03*
X002497Y005120D03*
X002497Y005110D03*
X002477Y003370D03*
X002487Y003350D03*
X002497Y003330D03*
X002517Y003300D03*
D119*
X003982Y003310D03*
D120*
X004412Y004100D03*
X004992Y003530D03*
X005002Y003540D03*
X005012Y003550D03*
X005022Y003560D03*
X005032Y003570D03*
X005062Y003350D03*
X005052Y003340D03*
X005042Y003330D03*
X005032Y003320D03*
X005342Y003870D03*
X005192Y004230D03*
X005182Y004240D03*
X005172Y004250D03*
X005162Y004260D03*
X005152Y004270D03*
X002992Y003520D03*
X002982Y003530D03*
X002972Y003540D03*
X002912Y003590D03*
X002902Y003600D03*
X002892Y003360D03*
X002902Y003350D03*
X002912Y003340D03*
X002922Y003330D03*
X002622Y003870D03*
X002802Y004260D03*
X002812Y004270D03*
D121*
X003982Y003330D03*
D122*
X003982Y003340D03*
X003982Y006010D03*
D123*
X004377Y005630D03*
X004917Y004770D03*
X005347Y003880D03*
X005087Y003380D03*
X005087Y003370D03*
X005077Y003360D03*
X004967Y003510D03*
X004977Y003520D03*
X004947Y003500D03*
X004937Y003490D03*
X004927Y003480D03*
X004327Y003770D03*
X003647Y003770D03*
X003467Y003770D03*
X003557Y004100D03*
X003017Y003500D03*
X003027Y003490D03*
X003037Y003480D03*
X003007Y003510D03*
X002887Y003370D03*
X002617Y003880D03*
X002757Y004210D03*
X002787Y004250D03*
X003027Y004760D03*
D124*
X003982Y003360D03*
D125*
X003982Y003370D03*
X003982Y004400D03*
X003982Y006000D03*
D126*
X003982Y003380D03*
D127*
X003982Y003390D03*
D128*
X003982Y003400D03*
D129*
X003982Y003420D03*
D130*
X003982Y003440D03*
X003982Y004410D03*
X003992Y004910D03*
D131*
X003977Y005130D03*
X003977Y005140D03*
X003977Y005150D03*
X003977Y005160D03*
X003987Y003450D03*
D132*
X003982Y003470D03*
X003972Y005100D03*
D133*
X002742Y003480D03*
X005222Y003480D03*
D134*
X003987Y003490D03*
X003977Y005050D03*
D135*
X003972Y005040D03*
X003972Y005030D03*
X003982Y003500D03*
D136*
X003982Y003520D03*
X003982Y004940D03*
X003972Y004950D03*
X003972Y004960D03*
X003972Y004970D03*
D137*
X003987Y003530D03*
D138*
X003982Y003540D03*
X003982Y005940D03*
D139*
X003987Y003560D03*
D140*
X003987Y003570D03*
D141*
X003987Y003590D03*
D142*
X003982Y003600D03*
X003982Y005920D03*
D143*
X003987Y003610D03*
D144*
X003987Y003630D03*
D145*
X003732Y003640D03*
D146*
X003557Y003700D03*
X004417Y003700D03*
X004727Y003930D03*
D147*
X004522Y004030D03*
X004412Y003900D03*
X004412Y003890D03*
X004412Y003880D03*
X004402Y003910D03*
X004412Y003710D03*
X004522Y003780D03*
X005292Y004080D03*
X005302Y004070D03*
X005302Y004060D03*
X005312Y004050D03*
X005312Y004040D03*
X005322Y004020D03*
X005322Y004010D03*
X005332Y004000D03*
X005332Y003990D03*
X005342Y003970D03*
X005342Y003960D03*
X005352Y003940D03*
X005352Y003930D03*
X005352Y003910D03*
X003672Y004030D03*
X003452Y004030D03*
X003442Y003780D03*
X003052Y004780D03*
X002672Y004080D03*
X002662Y004060D03*
X002652Y004040D03*
X002652Y004030D03*
X002642Y004010D03*
X002642Y004000D03*
X002632Y003990D03*
X002632Y003980D03*
X002632Y003970D03*
X002622Y003960D03*
X002622Y003950D03*
X002612Y003930D03*
X002612Y003920D03*
X002612Y003910D03*
X002612Y003900D03*
D148*
X003067Y004790D03*
X003407Y003990D03*
X003397Y003980D03*
X003397Y003840D03*
X003407Y003820D03*
X003417Y003810D03*
X003557Y003870D03*
X003557Y003940D03*
X003707Y003990D03*
X003717Y003980D03*
X003727Y003950D03*
X003717Y003830D03*
X003707Y003820D03*
X004247Y003840D03*
X004257Y003830D03*
X004257Y003820D03*
X004267Y003810D03*
X004247Y003970D03*
X004257Y003990D03*
X004267Y004000D03*
X004407Y003940D03*
X004547Y004010D03*
X004557Y004000D03*
X004567Y003990D03*
X004567Y003980D03*
X004567Y003830D03*
X005007Y004420D03*
D149*
X004037Y003850D03*
X003097Y004810D03*
X002947Y004430D03*
X003047Y003940D03*
D150*
X003052Y003860D03*
X003982Y003850D03*
X004842Y004820D03*
D151*
X004402Y003950D03*
D152*
X004417Y004110D03*
X005017Y004430D03*
X003557Y004110D03*
X003557Y003960D03*
D153*
X003697Y004180D03*
X003987Y004890D03*
D154*
X003987Y004210D03*
X003987Y004200D03*
X003987Y004190D03*
X003987Y005860D03*
D155*
X003982Y004250D03*
X003982Y004240D03*
X003982Y004230D03*
X003982Y004220D03*
D156*
X003987Y004260D03*
D157*
X003987Y004290D03*
D158*
X003982Y004380D03*
D159*
X003982Y004390D03*
D160*
X003977Y004420D03*
D161*
X003982Y004440D03*
D162*
X003982Y004450D03*
X003982Y005890D03*
D163*
X003982Y004460D03*
D164*
X003977Y004470D03*
D165*
X003982Y004510D03*
D166*
X003982Y004520D03*
D167*
X003982Y004530D03*
D168*
X003982Y004540D03*
D169*
X003977Y004850D03*
X004557Y004550D03*
X003987Y006040D03*
D170*
X003357Y004550D03*
D171*
X003987Y006060D03*
X004647Y004560D03*
D172*
X003237Y004570D03*
D173*
X004732Y004580D03*
D174*
X003982Y004860D03*
D175*
X003987Y004880D03*
D176*
X003987Y004930D03*
X003977Y005010D03*
X003977Y005020D03*
D177*
X003977Y005080D03*
X003977Y005090D03*
D178*
X003977Y005170D03*
X003977Y005180D03*
D179*
X003977Y005200D03*
X003987Y005980D03*
D180*
X003297Y005770D03*
X004667Y005770D03*
D181*
X004592Y005790D03*
X003382Y005790D03*
D182*
X003982Y005800D03*
D183*
X003987Y005810D03*
D184*
X003987Y005830D03*
D185*
X003982Y005880D03*
D186*
X003987Y005900D03*
D187*
X003987Y005910D03*
D188*
X003982Y005930D03*
D189*
X003982Y005970D03*
D190*
X003987Y005990D03*
M02*
