G75*
G70*
%OFA0B0*%
%FSLAX24Y24*%
%IPPOS*%
%LPD*%
%AMOC8*
5,1,8,0,0,1.08239X$1,22.5*
%
%ADD10R,0.0634X0.0634*%
%ADD11OC8,0.0634*%
%ADD12OC8,0.0760*%
%ADD13C,0.0080*%
%ADD14C,0.0340*%
%ADD15C,0.0100*%
%ADD16C,0.0240*%
D10*
X001650Y009900D03*
D11*
X001650Y008900D03*
X001650Y007900D03*
X001650Y006900D03*
X001650Y005900D03*
X001650Y004900D03*
X001650Y003900D03*
X001650Y002900D03*
X001650Y001900D03*
X001650Y000900D03*
X000650Y000900D03*
X000650Y001900D03*
X000650Y002900D03*
X000650Y003900D03*
X000650Y004900D03*
X000650Y005900D03*
X000650Y006900D03*
X000650Y007900D03*
X000650Y008900D03*
X000650Y009900D03*
D12*
X003150Y009700D03*
X004150Y009700D03*
X004150Y008100D03*
X003150Y008100D03*
X005150Y008100D03*
X003950Y001200D03*
X002950Y001200D03*
D13*
X002950Y001600D01*
X001650Y002900D01*
X002350Y003800D02*
X002350Y004900D01*
X001850Y005400D01*
X001450Y005400D01*
X001150Y005700D01*
X001150Y006400D01*
X001650Y006900D01*
X001650Y005900D02*
X002750Y004800D01*
X002750Y003900D01*
X002350Y003800D02*
X002750Y003400D01*
X003950Y005300D02*
X003450Y005800D01*
X003450Y006700D01*
X002350Y007800D01*
X002350Y008200D01*
X001650Y008900D01*
X001650Y007900D02*
X002750Y006800D01*
X002750Y005400D01*
X003950Y005300D02*
X003950Y001200D01*
X005750Y004900D02*
X005750Y006400D01*
X004150Y008000D01*
X004150Y008100D01*
D14*
X003450Y005800D03*
X002750Y005400D03*
X002750Y003900D03*
X002750Y003400D03*
X005750Y004900D03*
D15*
X000433Y000400D02*
X000350Y000483D01*
X000350Y000568D01*
X000465Y000453D01*
X000602Y000453D01*
X000602Y000852D01*
X000698Y000852D01*
X000698Y000948D01*
X000602Y000948D01*
X000602Y001347D01*
X000465Y001347D01*
X000350Y001232D01*
X000350Y001568D01*
X000465Y001453D01*
X000602Y001453D01*
X000602Y001852D01*
X000698Y001852D01*
X000698Y001948D01*
X000602Y001948D01*
X000602Y002347D01*
X000465Y002347D01*
X000350Y002232D01*
X000350Y002568D01*
X000465Y002453D01*
X000602Y002453D01*
X000602Y002852D01*
X000698Y002852D01*
X000698Y002948D01*
X000602Y002948D01*
X000602Y003347D01*
X000465Y003347D01*
X000350Y003232D01*
X000350Y003568D01*
X000465Y003453D01*
X000602Y003453D01*
X000602Y003852D01*
X000698Y003852D01*
X000698Y003948D01*
X000602Y003948D01*
X000602Y004347D01*
X000465Y004347D01*
X000350Y004232D01*
X000350Y004568D01*
X000465Y004453D01*
X000602Y004453D01*
X000602Y004852D01*
X000698Y004852D01*
X000698Y004948D01*
X000602Y004948D01*
X000602Y005347D01*
X000465Y005347D01*
X000350Y005232D01*
X000350Y005568D01*
X000465Y005453D01*
X000602Y005453D01*
X000602Y005852D01*
X000698Y005852D01*
X000698Y005453D01*
X000835Y005453D01*
X000982Y005600D01*
X001071Y005510D01*
X001336Y005246D01*
X001183Y005093D01*
X001183Y004707D01*
X001457Y004433D01*
X001843Y004433D01*
X002117Y004707D01*
X002117Y004864D01*
X002160Y004821D01*
X002160Y003721D01*
X002271Y003610D01*
X002430Y003451D01*
X002430Y003336D01*
X002479Y003219D01*
X002569Y003129D01*
X002686Y003080D01*
X002814Y003080D01*
X002931Y003129D01*
X003021Y003219D01*
X003070Y003336D01*
X003070Y003464D01*
X003021Y003581D01*
X002953Y003650D01*
X003021Y003719D01*
X003070Y003836D01*
X003070Y003964D01*
X003021Y004081D01*
X002940Y004163D01*
X002940Y004879D01*
X002739Y005080D01*
X002814Y005080D01*
X002931Y005129D01*
X003021Y005219D01*
X003070Y005336D01*
X003070Y005464D01*
X003021Y005581D01*
X002940Y005663D01*
X002940Y006879D01*
X002114Y007704D01*
X002117Y007707D01*
X002117Y008093D01*
X001843Y008367D01*
X001457Y008367D01*
X001183Y008093D01*
X001183Y007707D01*
X001457Y007433D01*
X001843Y007433D01*
X001846Y007436D01*
X002560Y006721D01*
X002560Y005663D01*
X002479Y005581D01*
X002430Y005464D01*
X002430Y005389D01*
X002114Y005704D01*
X002117Y005707D01*
X002117Y006093D01*
X001843Y006367D01*
X001457Y006367D01*
X001340Y006250D01*
X001340Y006321D01*
X001454Y006436D01*
X001457Y006433D01*
X001843Y006433D01*
X002117Y006707D01*
X002117Y007093D01*
X001843Y007367D01*
X001457Y007367D01*
X001183Y007093D01*
X001183Y006707D01*
X001186Y006704D01*
X000960Y006479D01*
X000960Y006222D01*
X000835Y006347D01*
X000698Y006347D01*
X000698Y005948D01*
X000602Y005948D01*
X000602Y006347D01*
X000465Y006347D01*
X000350Y006232D01*
X000350Y006568D01*
X000465Y006453D01*
X000602Y006453D01*
X000602Y006852D01*
X000698Y006852D01*
X000698Y006948D01*
X000602Y006948D01*
X000602Y007347D01*
X000465Y007347D01*
X000350Y007232D01*
X000350Y007568D01*
X000465Y007453D01*
X000602Y007453D01*
X000602Y007852D01*
X000698Y007852D01*
X000698Y007948D01*
X000602Y007948D01*
X000602Y008347D01*
X000465Y008347D01*
X000350Y008232D01*
X000350Y008568D01*
X000465Y008453D01*
X000602Y008453D01*
X000602Y008852D01*
X000698Y008852D01*
X000698Y008948D01*
X000602Y008948D01*
X000602Y009347D01*
X000465Y009347D01*
X000350Y009232D01*
X000350Y009540D01*
X000457Y009433D01*
X000843Y009433D01*
X001117Y009707D01*
X001117Y010093D01*
X001022Y010189D01*
X001033Y010200D01*
X001183Y010200D01*
X001183Y009521D01*
X001271Y009433D01*
X002029Y009433D01*
X002117Y009521D01*
X002117Y009630D01*
X002620Y009630D01*
X002620Y009480D01*
X002930Y009170D01*
X003370Y009170D01*
X003650Y009450D01*
X003930Y009170D01*
X004370Y009170D01*
X004680Y009480D01*
X004680Y009920D01*
X004370Y010230D01*
X004203Y010230D01*
X004033Y010400D01*
X006567Y010400D01*
X006650Y010317D01*
X006650Y000483D01*
X006567Y000400D01*
X000433Y000400D01*
X000421Y000497D02*
X000350Y000497D01*
X000602Y000497D02*
X000698Y000497D01*
X000698Y000453D02*
X000835Y000453D01*
X001097Y000715D01*
X001097Y000852D01*
X000698Y000852D01*
X000698Y000453D01*
X000698Y000596D02*
X000602Y000596D01*
X000602Y000694D02*
X000698Y000694D01*
X000698Y000793D02*
X000602Y000793D01*
X000698Y000891D02*
X001183Y000891D01*
X001183Y000793D02*
X001097Y000793D01*
X001076Y000694D02*
X001196Y000694D01*
X001183Y000707D02*
X001457Y000433D01*
X001843Y000433D01*
X002117Y000707D01*
X002117Y001093D01*
X001843Y001367D01*
X001457Y001367D01*
X001183Y001093D01*
X001183Y000707D01*
X001294Y000596D02*
X000977Y000596D01*
X000879Y000497D02*
X001393Y000497D01*
X001097Y000948D02*
X001097Y001085D01*
X000835Y001347D01*
X000698Y001347D01*
X000698Y000948D01*
X001097Y000948D01*
X001097Y000990D02*
X001183Y000990D01*
X001183Y001088D02*
X001094Y001088D01*
X000995Y001187D02*
X001276Y001187D01*
X001375Y001285D02*
X000897Y001285D01*
X000835Y001453D02*
X001097Y001715D01*
X001097Y001852D01*
X000698Y001852D01*
X000698Y001453D01*
X000835Y001453D01*
X000864Y001482D02*
X001408Y001482D01*
X001457Y001433D02*
X001843Y001433D01*
X002117Y001707D01*
X002117Y002093D01*
X001843Y002367D01*
X001457Y002367D01*
X001183Y002093D01*
X001183Y001707D01*
X001457Y001433D01*
X001309Y001581D02*
X000962Y001581D01*
X001061Y001679D02*
X001211Y001679D01*
X001183Y001778D02*
X001097Y001778D01*
X001183Y001876D02*
X000698Y001876D01*
X000698Y001948D02*
X001097Y001948D01*
X001097Y002085D01*
X000835Y002347D01*
X000698Y002347D01*
X000698Y001948D01*
X000698Y001975D02*
X000602Y001975D01*
X000602Y002073D02*
X000698Y002073D01*
X000698Y002172D02*
X000602Y002172D01*
X000602Y002270D02*
X000698Y002270D01*
X000698Y002453D02*
X000835Y002453D01*
X001097Y002715D01*
X001097Y002852D01*
X000698Y002852D01*
X000698Y002453D01*
X000698Y002467D02*
X000602Y002467D01*
X000602Y002566D02*
X000698Y002566D01*
X000698Y002664D02*
X000602Y002664D01*
X000602Y002763D02*
X000698Y002763D01*
X000698Y002861D02*
X001183Y002861D01*
X001183Y002763D02*
X001097Y002763D01*
X001183Y002707D02*
X001457Y002433D01*
X001843Y002433D01*
X001846Y002436D01*
X002641Y001640D01*
X002420Y001420D01*
X002420Y000980D01*
X002730Y000670D01*
X003170Y000670D01*
X003450Y000950D01*
X003730Y000670D01*
X004170Y000670D01*
X004480Y000980D01*
X004480Y001420D01*
X004170Y001730D01*
X004140Y001730D01*
X004140Y005379D01*
X003770Y005749D01*
X003770Y005864D01*
X003721Y005981D01*
X003640Y006063D01*
X003640Y006779D01*
X002540Y007879D01*
X002540Y008279D01*
X002114Y008704D01*
X002117Y008707D01*
X002117Y009093D01*
X001843Y009367D01*
X001457Y009367D01*
X001183Y009093D01*
X001183Y008707D01*
X001457Y008433D01*
X001843Y008433D01*
X001846Y008436D01*
X002160Y008121D01*
X002160Y007721D01*
X002271Y007610D01*
X003260Y006621D01*
X003260Y006063D01*
X003179Y005981D01*
X003130Y005864D01*
X003130Y005736D01*
X003179Y005619D01*
X003269Y005529D01*
X003386Y005480D01*
X003501Y005480D01*
X003760Y005221D01*
X003760Y001730D01*
X003730Y001730D01*
X003450Y001450D01*
X003170Y001730D01*
X003089Y001730D01*
X003029Y001790D01*
X002114Y002704D01*
X002117Y002707D01*
X002117Y003093D01*
X001843Y003367D01*
X001457Y003367D01*
X001183Y003093D01*
X001183Y002707D01*
X001226Y002664D02*
X001046Y002664D01*
X000947Y002566D02*
X001324Y002566D01*
X001423Y002467D02*
X000849Y002467D01*
X000912Y002270D02*
X001360Y002270D01*
X001261Y002172D02*
X001010Y002172D01*
X001097Y002073D02*
X001183Y002073D01*
X001183Y001975D02*
X001097Y001975D01*
X000698Y001778D02*
X000602Y001778D01*
X000602Y001679D02*
X000698Y001679D01*
X000698Y001581D02*
X000602Y001581D01*
X000602Y001482D02*
X000698Y001482D01*
X000698Y001285D02*
X000602Y001285D01*
X000602Y001187D02*
X000698Y001187D01*
X000698Y001088D02*
X000602Y001088D01*
X000602Y000990D02*
X000698Y000990D01*
X000403Y001285D02*
X000350Y001285D01*
X000350Y001384D02*
X002420Y001384D01*
X002420Y001285D02*
X001925Y001285D01*
X002024Y001187D02*
X002420Y001187D01*
X002420Y001088D02*
X002117Y001088D01*
X002117Y000990D02*
X002420Y000990D01*
X002509Y000891D02*
X002117Y000891D01*
X002117Y000793D02*
X002608Y000793D01*
X002706Y000694D02*
X002104Y000694D01*
X002006Y000596D02*
X006650Y000596D01*
X006650Y000694D02*
X004194Y000694D01*
X004292Y000793D02*
X006650Y000793D01*
X006650Y000891D02*
X004391Y000891D01*
X004480Y000990D02*
X006650Y000990D01*
X006650Y001088D02*
X004480Y001088D01*
X004480Y001187D02*
X006650Y001187D01*
X006650Y001285D02*
X004480Y001285D01*
X004480Y001384D02*
X006650Y001384D01*
X006650Y001482D02*
X004418Y001482D01*
X004319Y001581D02*
X006650Y001581D01*
X006650Y001679D02*
X004221Y001679D01*
X004140Y001778D02*
X006650Y001778D01*
X006650Y001876D02*
X004140Y001876D01*
X004140Y001975D02*
X006650Y001975D01*
X006650Y002073D02*
X004140Y002073D01*
X004140Y002172D02*
X006650Y002172D01*
X006650Y002270D02*
X004140Y002270D01*
X004140Y002369D02*
X006650Y002369D01*
X006650Y002467D02*
X004140Y002467D01*
X004140Y002566D02*
X006650Y002566D01*
X006650Y002664D02*
X004140Y002664D01*
X004140Y002763D02*
X006650Y002763D01*
X006650Y002861D02*
X004140Y002861D01*
X004140Y002960D02*
X006650Y002960D01*
X006650Y003058D02*
X004140Y003058D01*
X004140Y003157D02*
X006650Y003157D01*
X006650Y003255D02*
X004140Y003255D01*
X004140Y003354D02*
X006650Y003354D01*
X006650Y003452D02*
X004140Y003452D01*
X004140Y003551D02*
X006650Y003551D01*
X006650Y003649D02*
X004140Y003649D01*
X004140Y003748D02*
X006650Y003748D01*
X006650Y003846D02*
X004140Y003846D01*
X004140Y003945D02*
X006650Y003945D01*
X006650Y004043D02*
X004140Y004043D01*
X004140Y004142D02*
X006650Y004142D01*
X006650Y004240D02*
X004140Y004240D01*
X004140Y004339D02*
X006650Y004339D01*
X006650Y004437D02*
X004140Y004437D01*
X004140Y004536D02*
X006650Y004536D01*
X006650Y004634D02*
X005937Y004634D01*
X005931Y004629D02*
X006021Y004719D01*
X006070Y004836D01*
X006070Y004964D01*
X006021Y005081D01*
X005940Y005163D01*
X005940Y006321D01*
X005940Y006479D01*
X004609Y007810D01*
X004664Y007865D01*
X004939Y007590D01*
X005102Y007590D01*
X005102Y008052D01*
X005198Y008052D01*
X005198Y008148D01*
X005102Y008148D01*
X005102Y008610D01*
X004939Y008610D01*
X004664Y008335D01*
X004370Y008630D01*
X003930Y008630D01*
X003650Y008350D01*
X003370Y008630D01*
X002930Y008630D01*
X002620Y008320D01*
X002620Y007880D01*
X002930Y007570D01*
X003370Y007570D01*
X003650Y007850D01*
X003930Y007570D01*
X004311Y007570D01*
X005560Y006321D01*
X005560Y005163D01*
X005479Y005081D01*
X005430Y004964D01*
X005430Y004836D01*
X005479Y004719D01*
X005569Y004629D01*
X005686Y004580D01*
X005814Y004580D01*
X005931Y004629D01*
X006027Y004733D02*
X006650Y004733D01*
X006650Y004831D02*
X006068Y004831D01*
X006070Y004930D02*
X006650Y004930D01*
X006650Y005028D02*
X006043Y005028D01*
X005976Y005127D02*
X006650Y005127D01*
X006650Y005225D02*
X005940Y005225D01*
X005940Y005324D02*
X006650Y005324D01*
X006650Y005422D02*
X005940Y005422D01*
X005940Y005521D02*
X006650Y005521D01*
X006650Y005619D02*
X005940Y005619D01*
X005940Y005718D02*
X006650Y005718D01*
X006650Y005816D02*
X005940Y005816D01*
X005940Y005915D02*
X006650Y005915D01*
X006650Y006013D02*
X005940Y006013D01*
X005940Y006112D02*
X006650Y006112D01*
X006650Y006210D02*
X005940Y006210D01*
X005940Y006309D02*
X006650Y006309D01*
X006650Y006407D02*
X005940Y006407D01*
X005913Y006506D02*
X006650Y006506D01*
X006650Y006604D02*
X005815Y006604D01*
X005716Y006703D02*
X006650Y006703D01*
X006650Y006801D02*
X005618Y006801D01*
X005519Y006900D02*
X006650Y006900D01*
X006650Y006998D02*
X005421Y006998D01*
X005322Y007097D02*
X006650Y007097D01*
X006650Y007195D02*
X005224Y007195D01*
X005125Y007294D02*
X006650Y007294D01*
X006650Y007392D02*
X005027Y007392D01*
X004928Y007491D02*
X006650Y007491D01*
X006650Y007589D02*
X004830Y007589D01*
X004841Y007688D02*
X004731Y007688D01*
X004743Y007786D02*
X004633Y007786D01*
X004391Y007491D02*
X002928Y007491D01*
X002911Y007589D02*
X002830Y007589D01*
X002813Y007688D02*
X002731Y007688D01*
X002714Y007786D02*
X002633Y007786D01*
X002620Y007885D02*
X002540Y007885D01*
X002540Y007983D02*
X002620Y007983D01*
X002620Y008082D02*
X002540Y008082D01*
X002540Y008180D02*
X002620Y008180D01*
X002620Y008279D02*
X002540Y008279D01*
X002442Y008377D02*
X002677Y008377D01*
X002776Y008476D02*
X002343Y008476D01*
X002245Y008574D02*
X002874Y008574D01*
X002837Y009264D02*
X001947Y009264D01*
X001848Y009362D02*
X002738Y009362D01*
X002640Y009461D02*
X002056Y009461D01*
X002117Y009559D02*
X002620Y009559D01*
X002117Y009067D02*
X006650Y009067D01*
X006650Y009165D02*
X002045Y009165D01*
X002117Y008968D02*
X006650Y008968D01*
X006650Y008870D02*
X002117Y008870D01*
X002117Y008771D02*
X006650Y008771D01*
X006650Y008673D02*
X002146Y008673D01*
X001904Y008377D02*
X000350Y008377D01*
X000350Y008279D02*
X000397Y008279D01*
X000350Y008476D02*
X000443Y008476D01*
X000602Y008476D02*
X000698Y008476D01*
X000698Y008453D02*
X000835Y008453D01*
X001097Y008715D01*
X001097Y008852D01*
X000698Y008852D01*
X000698Y008453D01*
X000698Y008347D02*
X000698Y007948D01*
X001097Y007948D01*
X001097Y008085D01*
X000835Y008347D01*
X000698Y008347D01*
X000698Y008279D02*
X000602Y008279D01*
X000602Y008180D02*
X000698Y008180D01*
X000698Y008082D02*
X000602Y008082D01*
X000602Y007983D02*
X000698Y007983D01*
X000698Y007885D02*
X001183Y007885D01*
X001097Y007852D02*
X000698Y007852D01*
X000698Y007453D01*
X000835Y007453D01*
X001097Y007715D01*
X001097Y007852D01*
X001097Y007786D02*
X001183Y007786D01*
X001202Y007688D02*
X001069Y007688D01*
X000971Y007589D02*
X001301Y007589D01*
X001399Y007491D02*
X000872Y007491D01*
X000835Y007347D02*
X000698Y007347D01*
X000698Y006948D01*
X001097Y006948D01*
X001097Y007085D01*
X000835Y007347D01*
X000888Y007294D02*
X001383Y007294D01*
X001285Y007195D02*
X000987Y007195D01*
X001085Y007097D02*
X001186Y007097D01*
X001183Y006998D02*
X001097Y006998D01*
X001183Y006900D02*
X000698Y006900D01*
X000698Y006852D02*
X001097Y006852D01*
X001097Y006715D01*
X000835Y006453D01*
X000698Y006453D01*
X000698Y006852D01*
X000698Y006801D02*
X000602Y006801D01*
X000602Y006703D02*
X000698Y006703D01*
X000698Y006604D02*
X000602Y006604D01*
X000602Y006506D02*
X000698Y006506D01*
X000698Y006309D02*
X000602Y006309D01*
X000602Y006210D02*
X000698Y006210D01*
X000698Y006112D02*
X000602Y006112D01*
X000602Y006013D02*
X000698Y006013D01*
X000698Y005816D02*
X000602Y005816D01*
X000602Y005718D02*
X000698Y005718D01*
X000698Y005619D02*
X000602Y005619D01*
X000602Y005521D02*
X000698Y005521D01*
X000698Y005347D02*
X000698Y004948D01*
X001097Y004948D01*
X001097Y005085D01*
X000835Y005347D01*
X000698Y005347D01*
X000698Y005324D02*
X000602Y005324D01*
X000602Y005225D02*
X000698Y005225D01*
X000698Y005127D02*
X000602Y005127D01*
X000602Y005028D02*
X000698Y005028D01*
X000698Y004930D02*
X001183Y004930D01*
X001183Y005028D02*
X001097Y005028D01*
X001055Y005127D02*
X001216Y005127D01*
X001315Y005225D02*
X000957Y005225D01*
X000858Y005324D02*
X001258Y005324D01*
X001159Y005422D02*
X000350Y005422D01*
X000350Y005324D02*
X000442Y005324D01*
X000398Y005521D02*
X000350Y005521D01*
X000602Y004831D02*
X000698Y004831D01*
X000698Y004852D02*
X000698Y004453D01*
X000835Y004453D01*
X001097Y004715D01*
X001097Y004852D01*
X000698Y004852D01*
X000698Y004733D02*
X000602Y004733D01*
X000602Y004634D02*
X000698Y004634D01*
X000698Y004536D02*
X000602Y004536D01*
X000602Y004339D02*
X000698Y004339D01*
X000698Y004347D02*
X000698Y003948D01*
X001097Y003948D01*
X001097Y004085D01*
X000835Y004347D01*
X000698Y004347D01*
X000698Y004240D02*
X000602Y004240D01*
X000602Y004142D02*
X000698Y004142D01*
X000698Y004043D02*
X000602Y004043D01*
X000698Y003945D02*
X001183Y003945D01*
X001183Y004043D02*
X001097Y004043D01*
X001183Y004093D02*
X001183Y003707D01*
X001457Y003433D01*
X001843Y003433D01*
X002117Y003707D01*
X002117Y004093D01*
X001843Y004367D01*
X001457Y004367D01*
X001183Y004093D01*
X001231Y004142D02*
X001040Y004142D01*
X000942Y004240D02*
X001330Y004240D01*
X001428Y004339D02*
X000843Y004339D01*
X000917Y004536D02*
X001354Y004536D01*
X001453Y004437D02*
X000350Y004437D01*
X000350Y004339D02*
X000457Y004339D01*
X000358Y004240D02*
X000350Y004240D01*
X000350Y004536D02*
X000383Y004536D01*
X000602Y003846D02*
X000698Y003846D01*
X000698Y003852D02*
X000698Y003453D01*
X000835Y003453D01*
X001097Y003715D01*
X001097Y003852D01*
X000698Y003852D01*
X000698Y003748D02*
X000602Y003748D01*
X000602Y003649D02*
X000698Y003649D01*
X000698Y003551D02*
X000602Y003551D01*
X000698Y003347D02*
X000698Y002948D01*
X001097Y002948D01*
X001097Y003085D01*
X000835Y003347D01*
X000698Y003347D01*
X000698Y003255D02*
X000602Y003255D01*
X000602Y003157D02*
X000698Y003157D01*
X000698Y003058D02*
X000602Y003058D01*
X000602Y002960D02*
X000698Y002960D01*
X000927Y003255D02*
X001345Y003255D01*
X001443Y003354D02*
X000350Y003354D01*
X000350Y003452D02*
X001438Y003452D01*
X001339Y003551D02*
X000932Y003551D01*
X001031Y003649D02*
X001241Y003649D01*
X001183Y003748D02*
X001097Y003748D01*
X001097Y003846D02*
X001183Y003846D01*
X001246Y003157D02*
X001025Y003157D01*
X001097Y003058D02*
X001183Y003058D01*
X001183Y002960D02*
X001097Y002960D01*
X000451Y002467D02*
X000350Y002467D01*
X000350Y002369D02*
X001913Y002369D01*
X001940Y002270D02*
X002011Y002270D01*
X002039Y002172D02*
X002110Y002172D01*
X002117Y002073D02*
X002208Y002073D01*
X002117Y001975D02*
X002307Y001975D01*
X002405Y001876D02*
X002117Y001876D01*
X002117Y001778D02*
X002504Y001778D01*
X002602Y001679D02*
X002089Y001679D01*
X001991Y001581D02*
X002581Y001581D01*
X002482Y001482D02*
X001892Y001482D01*
X002450Y002369D02*
X003760Y002369D01*
X003760Y002467D02*
X002352Y002467D01*
X002253Y002566D02*
X003760Y002566D01*
X003760Y002664D02*
X002155Y002664D01*
X002117Y002763D02*
X003760Y002763D01*
X003760Y002861D02*
X002117Y002861D01*
X002117Y002960D02*
X003760Y002960D01*
X003760Y003058D02*
X002117Y003058D01*
X002054Y003157D02*
X002541Y003157D01*
X002464Y003255D02*
X001955Y003255D01*
X001857Y003354D02*
X002430Y003354D01*
X002429Y003452D02*
X001862Y003452D01*
X001961Y003551D02*
X002331Y003551D01*
X002232Y003649D02*
X002059Y003649D01*
X002117Y003748D02*
X002160Y003748D01*
X002160Y003846D02*
X002117Y003846D01*
X002117Y003945D02*
X002160Y003945D01*
X002160Y004043D02*
X002117Y004043D01*
X002160Y004142D02*
X002069Y004142D01*
X002160Y004240D02*
X001970Y004240D01*
X001872Y004339D02*
X002160Y004339D01*
X002160Y004437D02*
X001847Y004437D01*
X001946Y004536D02*
X002160Y004536D01*
X002160Y004634D02*
X002044Y004634D01*
X002117Y004733D02*
X002160Y004733D01*
X002150Y004831D02*
X002117Y004831D01*
X002397Y005422D02*
X002430Y005422D01*
X002454Y005521D02*
X002298Y005521D01*
X002200Y005619D02*
X002516Y005619D01*
X002560Y005718D02*
X002117Y005718D01*
X002117Y005816D02*
X002560Y005816D01*
X002560Y005915D02*
X002117Y005915D01*
X002117Y006013D02*
X002560Y006013D01*
X002560Y006112D02*
X002099Y006112D01*
X002000Y006210D02*
X002560Y006210D01*
X002560Y006309D02*
X001902Y006309D01*
X001916Y006506D02*
X002560Y006506D01*
X002560Y006604D02*
X002014Y006604D01*
X002113Y006703D02*
X002560Y006703D01*
X002480Y006801D02*
X002117Y006801D01*
X002117Y006900D02*
X002382Y006900D01*
X002283Y006998D02*
X002117Y006998D01*
X002114Y007097D02*
X002185Y007097D01*
X002086Y007195D02*
X002015Y007195D01*
X001988Y007294D02*
X001917Y007294D01*
X001889Y007392D02*
X000350Y007392D01*
X000350Y007294D02*
X000412Y007294D01*
X000428Y007491D02*
X000350Y007491D01*
X000602Y007491D02*
X000698Y007491D01*
X000698Y007589D02*
X000602Y007589D01*
X000602Y007688D02*
X000698Y007688D01*
X000698Y007786D02*
X000602Y007786D01*
X000903Y008279D02*
X001368Y008279D01*
X001270Y008180D02*
X001002Y008180D01*
X001097Y008082D02*
X001183Y008082D01*
X001183Y007983D02*
X001097Y007983D01*
X000857Y008476D02*
X001414Y008476D01*
X001316Y008574D02*
X000956Y008574D01*
X001054Y008673D02*
X001217Y008673D01*
X001183Y008771D02*
X001097Y008771D01*
X001183Y008870D02*
X000698Y008870D01*
X000698Y008948D02*
X001097Y008948D01*
X001097Y009085D01*
X000835Y009347D01*
X000698Y009347D01*
X000698Y008948D01*
X000698Y008968D02*
X000602Y008968D01*
X000602Y009067D02*
X000698Y009067D01*
X000698Y009165D02*
X000602Y009165D01*
X000602Y009264D02*
X000698Y009264D01*
X000871Y009461D02*
X001244Y009461D01*
X001183Y009559D02*
X000969Y009559D01*
X001068Y009658D02*
X001183Y009658D01*
X001183Y009756D02*
X001117Y009756D01*
X001117Y009855D02*
X001183Y009855D01*
X001183Y009953D02*
X001117Y009953D01*
X001117Y010052D02*
X001183Y010052D01*
X001183Y010150D02*
X001060Y010150D01*
X000950Y010400D02*
X003750Y010400D01*
X004150Y010000D01*
X004150Y009700D01*
X004463Y009264D02*
X006650Y009264D01*
X006650Y009362D02*
X004562Y009362D01*
X004660Y009461D02*
X006650Y009461D01*
X006650Y009559D02*
X004680Y009559D01*
X004680Y009658D02*
X006650Y009658D01*
X006650Y009756D02*
X004680Y009756D01*
X004680Y009855D02*
X006650Y009855D01*
X006650Y009953D02*
X004647Y009953D01*
X004548Y010052D02*
X006650Y010052D01*
X006650Y010150D02*
X004450Y010150D01*
X004184Y010249D02*
X006650Y010249D01*
X006620Y010347D02*
X004086Y010347D01*
X003738Y009362D02*
X003562Y009362D01*
X003463Y009264D02*
X003837Y009264D01*
X003874Y008574D02*
X003426Y008574D01*
X003524Y008476D02*
X003776Y008476D01*
X003677Y008377D02*
X003623Y008377D01*
X003586Y007786D02*
X003714Y007786D01*
X003813Y007688D02*
X003487Y007688D01*
X003389Y007589D02*
X003911Y007589D01*
X003519Y006900D02*
X004982Y006900D01*
X005080Y006801D02*
X003618Y006801D01*
X003640Y006703D02*
X005179Y006703D01*
X005277Y006604D02*
X003640Y006604D01*
X003640Y006506D02*
X005376Y006506D01*
X005474Y006407D02*
X003640Y006407D01*
X003640Y006309D02*
X005560Y006309D01*
X005560Y006210D02*
X003640Y006210D01*
X003640Y006112D02*
X005560Y006112D01*
X005560Y006013D02*
X003690Y006013D01*
X003749Y005915D02*
X005560Y005915D01*
X005560Y005816D02*
X003770Y005816D01*
X003801Y005718D02*
X005560Y005718D01*
X005560Y005619D02*
X003900Y005619D01*
X003998Y005521D02*
X005560Y005521D01*
X005560Y005422D02*
X004097Y005422D01*
X004140Y005324D02*
X005560Y005324D01*
X005560Y005225D02*
X004140Y005225D01*
X004140Y005127D02*
X005524Y005127D01*
X005457Y005028D02*
X004140Y005028D01*
X004140Y004930D02*
X005430Y004930D01*
X005432Y004831D02*
X004140Y004831D01*
X004140Y004733D02*
X005473Y004733D01*
X005563Y004634D02*
X004140Y004634D01*
X003760Y004634D02*
X002940Y004634D01*
X002940Y004536D02*
X003760Y004536D01*
X003760Y004437D02*
X002940Y004437D01*
X002940Y004339D02*
X003760Y004339D01*
X003760Y004240D02*
X002940Y004240D01*
X002961Y004142D02*
X003760Y004142D01*
X003760Y004043D02*
X003037Y004043D01*
X003070Y003945D02*
X003760Y003945D01*
X003760Y003846D02*
X003070Y003846D01*
X003033Y003748D02*
X003760Y003748D01*
X003760Y003649D02*
X002954Y003649D01*
X003034Y003551D02*
X003760Y003551D01*
X003760Y003452D02*
X003070Y003452D01*
X003070Y003354D02*
X003760Y003354D01*
X003760Y003255D02*
X003036Y003255D01*
X002959Y003157D02*
X003760Y003157D01*
X003760Y002270D02*
X002549Y002270D01*
X002647Y002172D02*
X003760Y002172D01*
X003760Y002073D02*
X002746Y002073D01*
X002844Y001975D02*
X003760Y001975D01*
X003760Y001876D02*
X002943Y001876D01*
X003041Y001778D02*
X003760Y001778D01*
X003679Y001679D02*
X003221Y001679D01*
X003319Y001581D02*
X003581Y001581D01*
X003482Y001482D02*
X003418Y001482D01*
X003391Y000891D02*
X003509Y000891D01*
X003608Y000793D02*
X003292Y000793D01*
X003194Y000694D02*
X003706Y000694D01*
X001907Y000497D02*
X006650Y000497D01*
X003760Y004733D02*
X002940Y004733D01*
X002940Y004831D02*
X003760Y004831D01*
X003760Y004930D02*
X002889Y004930D01*
X002791Y005028D02*
X003760Y005028D01*
X003760Y005127D02*
X002926Y005127D01*
X003024Y005225D02*
X003756Y005225D01*
X003658Y005324D02*
X003065Y005324D01*
X003070Y005422D02*
X003559Y005422D01*
X003289Y005521D02*
X003046Y005521D01*
X002984Y005619D02*
X003179Y005619D01*
X003138Y005718D02*
X002940Y005718D01*
X002940Y005816D02*
X003130Y005816D01*
X003151Y005915D02*
X002940Y005915D01*
X002940Y006013D02*
X003210Y006013D01*
X003260Y006112D02*
X002940Y006112D01*
X002940Y006210D02*
X003260Y006210D01*
X003260Y006309D02*
X002940Y006309D01*
X002940Y006407D02*
X003260Y006407D01*
X003260Y006506D02*
X002940Y006506D01*
X002940Y006604D02*
X003260Y006604D01*
X003179Y006703D02*
X002940Y006703D01*
X002940Y006801D02*
X003080Y006801D01*
X002982Y006900D02*
X002919Y006900D01*
X002883Y006998D02*
X002821Y006998D01*
X002785Y007097D02*
X002722Y007097D01*
X002686Y007195D02*
X002624Y007195D01*
X002588Y007294D02*
X002525Y007294D01*
X002489Y007392D02*
X002427Y007392D01*
X002391Y007491D02*
X002328Y007491D01*
X002292Y007589D02*
X002230Y007589D01*
X002194Y007688D02*
X002131Y007688D01*
X002117Y007786D02*
X002160Y007786D01*
X002160Y007885D02*
X002117Y007885D01*
X002117Y007983D02*
X002160Y007983D01*
X002160Y008082D02*
X002117Y008082D01*
X002101Y008180D02*
X002030Y008180D01*
X002003Y008279D02*
X001932Y008279D01*
X001353Y009264D02*
X000918Y009264D01*
X001017Y009165D02*
X001255Y009165D01*
X001183Y009067D02*
X001097Y009067D01*
X001097Y008968D02*
X001183Y008968D01*
X001452Y009362D02*
X000350Y009362D01*
X000350Y009264D02*
X000382Y009264D01*
X000350Y009461D02*
X000429Y009461D01*
X000650Y009900D02*
X000650Y010100D01*
X000950Y010400D01*
X000698Y008771D02*
X000602Y008771D01*
X000602Y008673D02*
X000698Y008673D01*
X000698Y008574D02*
X000602Y008574D01*
X000602Y007294D02*
X000698Y007294D01*
X000698Y007195D02*
X000602Y007195D01*
X000602Y007097D02*
X000698Y007097D01*
X000698Y006998D02*
X000602Y006998D01*
X000413Y006506D02*
X000350Y006506D01*
X000350Y006407D02*
X000960Y006407D01*
X000960Y006309D02*
X000873Y006309D01*
X000887Y006506D02*
X000987Y006506D01*
X000986Y006604D02*
X001085Y006604D01*
X001084Y006703D02*
X001184Y006703D01*
X001183Y006801D02*
X001097Y006801D01*
X001426Y006407D02*
X002560Y006407D01*
X003125Y007294D02*
X004588Y007294D01*
X004489Y007392D02*
X003027Y007392D01*
X003224Y007195D02*
X004686Y007195D01*
X004785Y007097D02*
X003322Y007097D01*
X003421Y006998D02*
X004883Y006998D01*
X005198Y007590D02*
X005361Y007590D01*
X005660Y007889D01*
X005660Y008052D01*
X005198Y008052D01*
X005198Y007590D01*
X005198Y007688D02*
X005102Y007688D01*
X005102Y007786D02*
X005198Y007786D01*
X005198Y007885D02*
X005102Y007885D01*
X005102Y007983D02*
X005198Y007983D01*
X005198Y008082D02*
X006650Y008082D01*
X006650Y008180D02*
X005660Y008180D01*
X005660Y008148D02*
X005660Y008311D01*
X005361Y008610D01*
X005198Y008610D01*
X005198Y008148D01*
X005660Y008148D01*
X005660Y008279D02*
X006650Y008279D01*
X006650Y008377D02*
X005594Y008377D01*
X005496Y008476D02*
X006650Y008476D01*
X006650Y008574D02*
X005397Y008574D01*
X005198Y008574D02*
X005102Y008574D01*
X005102Y008476D02*
X005198Y008476D01*
X005198Y008377D02*
X005102Y008377D01*
X005102Y008279D02*
X005198Y008279D01*
X005198Y008180D02*
X005102Y008180D01*
X004903Y008574D02*
X004426Y008574D01*
X004524Y008476D02*
X004804Y008476D01*
X004706Y008377D02*
X004623Y008377D01*
X005459Y007688D02*
X006650Y007688D01*
X006650Y007786D02*
X005557Y007786D01*
X005656Y007885D02*
X006650Y007885D01*
X006650Y007983D02*
X005660Y007983D01*
X001398Y006309D02*
X001340Y006309D01*
X001061Y005521D02*
X000902Y005521D01*
X001097Y004831D02*
X001183Y004831D01*
X001183Y004733D02*
X001097Y004733D01*
X001016Y004634D02*
X001256Y004634D01*
X000368Y003551D02*
X000350Y003551D01*
X000350Y003255D02*
X000373Y003255D01*
X000350Y002566D02*
X000353Y002566D01*
X000350Y002270D02*
X000388Y002270D01*
X000350Y001482D02*
X000436Y001482D01*
X000350Y006309D02*
X000427Y006309D01*
D16*
X001650Y009900D02*
X002950Y009900D01*
X003150Y009700D01*
M02*
