%
M48
M72
T01C0.0140
T02C0.0394
%
T01
X2750Y3400
X2750Y3900
X2750Y5400
X3450Y5800
X5750Y4900
T02
X650Y900
X650Y1900
X650Y2900
X650Y3900
X650Y4900
X650Y5900
X650Y6900
X650Y7900
X650Y8900
X650Y9900
X1650Y9900
X1650Y8900
X1650Y7900
X1650Y6900
X1650Y5900
X1650Y4900
X1650Y3900
X1650Y2900
X1650Y1900
X1650Y900
X2950Y1200
X3950Y1200
X4150Y8100
X3150Y8100
X3150Y9700
X4150Y9700
X5150Y8100
M30
