G75*
G70*
%OFA0B0*%
%FSLAX24Y24*%
%IPPOS*%
%LPD*%
%AMOC8*
5,1,8,0,0,1.08239X$1,22.5*
%
%ADD10C,0.0100*%
%ADD11C,0.0060*%
%ADD12C,0.0220*%
%ADD13C,0.0050*%
%ADD14R,0.0300X0.0180*%
%ADD15C,0.0080*%
%ADD16C,0.0030*%
D10*
X000350Y000200D02*
X000150Y000400D01*
X000150Y010400D01*
X000350Y010600D01*
X006650Y010600D01*
X006850Y010400D01*
X006850Y000400D01*
X006650Y000200D01*
X000350Y000200D01*
X002872Y002325D02*
X005628Y002325D01*
X005628Y004006D01*
X005628Y004794D02*
X005628Y006475D01*
X002872Y006475D01*
X002872Y002325D01*
D11*
X004560Y001543D02*
X004560Y001369D01*
X004560Y001456D02*
X004820Y001456D01*
X004777Y001248D02*
X004733Y001248D01*
X004690Y001205D01*
X004690Y001118D01*
X004647Y001075D01*
X004603Y001075D01*
X004560Y001118D01*
X004560Y001205D01*
X004603Y001248D01*
X004777Y001248D02*
X004820Y001205D01*
X004820Y001118D01*
X004777Y001075D01*
X004820Y000953D02*
X004733Y000867D01*
X004733Y000910D02*
X004733Y000780D01*
X004820Y000780D02*
X004560Y000780D01*
X004560Y000910D01*
X004603Y000953D01*
X004690Y000953D01*
X004733Y000910D01*
X006293Y003430D02*
X006463Y003430D01*
X006520Y003487D01*
X006463Y003543D01*
X006520Y003600D01*
X006463Y003657D01*
X006293Y003657D01*
X006293Y003798D02*
X006463Y003798D01*
X006520Y003855D01*
X006463Y003912D01*
X006520Y003968D01*
X006463Y004025D01*
X006293Y004025D01*
X006293Y004167D02*
X006463Y004167D01*
X006520Y004223D01*
X006463Y004280D01*
X006520Y004337D01*
X006463Y004393D01*
X006293Y004393D01*
X006463Y004535D02*
X006463Y004592D01*
X006520Y004592D01*
X006520Y004535D01*
X006463Y004535D01*
X006520Y004719D02*
X006520Y004889D01*
X006463Y004946D01*
X006350Y004946D01*
X006293Y004889D01*
X006293Y004719D01*
X006633Y004719D01*
X006463Y005087D02*
X006407Y005144D01*
X006407Y005314D01*
X006350Y005314D02*
X006520Y005314D01*
X006520Y005144D01*
X006463Y005087D01*
X006293Y005258D02*
X006350Y005314D01*
X006293Y005258D02*
X006293Y005144D01*
X006293Y005456D02*
X006293Y005569D01*
X006236Y005512D02*
X006463Y005512D01*
X006520Y005569D01*
X006463Y005758D02*
X006520Y005815D01*
X006463Y005758D02*
X006236Y005758D01*
X006293Y005701D02*
X006293Y005815D01*
X006350Y005947D02*
X006293Y006004D01*
X006293Y006117D01*
X006350Y006174D01*
X006407Y006174D01*
X006407Y005947D01*
X006463Y005947D02*
X006350Y005947D01*
X006463Y005947D02*
X006520Y006004D01*
X006520Y006117D01*
X006520Y006315D02*
X006293Y006315D01*
X006293Y006429D02*
X006293Y006485D01*
X006293Y006429D02*
X006407Y006315D01*
X006520Y006622D02*
X006293Y006622D01*
X006293Y006792D01*
X006350Y006849D01*
X006520Y006849D01*
X006463Y006990D02*
X006407Y007047D01*
X006407Y007217D01*
X006350Y007217D02*
X006520Y007217D01*
X006520Y007047D01*
X006463Y006990D01*
X006293Y007161D02*
X006350Y007217D01*
X006293Y007161D02*
X006293Y007047D01*
X006350Y007359D02*
X006463Y007359D01*
X006520Y007415D01*
X006520Y007586D01*
X006577Y007586D02*
X006293Y007586D01*
X006293Y007415D01*
X006350Y007359D01*
X006577Y007586D02*
X006633Y007529D01*
X006633Y007472D01*
X006463Y007727D02*
X006350Y007727D01*
X006293Y007784D01*
X006293Y007897D01*
X006350Y007954D01*
X006407Y007954D01*
X006407Y007727D01*
X006463Y007727D02*
X006520Y007784D01*
X006520Y007897D01*
X006520Y008095D02*
X006293Y008095D01*
X006293Y008265D01*
X006350Y008322D01*
X006520Y008322D01*
X006463Y008520D02*
X006520Y008577D01*
X006463Y008520D02*
X006236Y008520D01*
X006293Y008464D02*
X006293Y008577D01*
X006350Y008709D02*
X006293Y008766D01*
X006293Y008936D01*
X006407Y008879D02*
X006407Y008766D01*
X006350Y008709D01*
X006407Y008879D02*
X006463Y008936D01*
X006520Y008879D01*
X006520Y008709D01*
X006520Y009077D02*
X006463Y009077D01*
X006463Y009134D01*
X006520Y009134D01*
X006520Y009077D01*
X006463Y009262D02*
X006520Y009318D01*
X006520Y009489D01*
X006463Y009630D02*
X006520Y009687D01*
X006520Y009800D01*
X006463Y009857D01*
X006350Y009857D01*
X006293Y009800D01*
X006293Y009687D01*
X006350Y009630D01*
X006463Y009630D01*
X006293Y009489D02*
X006293Y009318D01*
X006350Y009262D01*
X006463Y009262D01*
X006070Y008932D02*
X006070Y008759D01*
X006070Y008845D02*
X005810Y008845D01*
X005897Y008759D01*
X005810Y008637D02*
X005983Y008464D01*
X005940Y008507D02*
X006070Y008637D01*
X006070Y008464D02*
X005810Y008464D01*
X005853Y008343D02*
X005810Y008299D01*
X005810Y008213D01*
X005853Y008169D01*
X006027Y008169D01*
X006070Y008213D01*
X006070Y008299D01*
X006027Y008343D01*
X006070Y007961D02*
X005810Y007961D01*
X005810Y007875D02*
X005810Y008048D01*
X005853Y007753D02*
X005940Y007753D01*
X005983Y007710D01*
X005983Y007580D01*
X005983Y007667D02*
X006070Y007753D01*
X006070Y007580D02*
X005810Y007580D01*
X005810Y007710D01*
X005853Y007753D01*
X004953Y009201D02*
X005040Y009288D01*
X004953Y009375D01*
X004780Y009375D01*
X004780Y009496D02*
X004780Y009626D01*
X004823Y009670D01*
X004910Y009670D01*
X004953Y009626D01*
X004953Y009496D01*
X004953Y009583D02*
X005040Y009670D01*
X005040Y009791D02*
X005040Y009964D01*
X005040Y010085D02*
X004780Y010085D01*
X004780Y010259D01*
X004910Y010172D02*
X004910Y010085D01*
X004780Y009964D02*
X004780Y009791D01*
X005040Y009791D01*
X004910Y009791D02*
X004910Y009877D01*
X005040Y009496D02*
X004780Y009496D01*
X004780Y009201D02*
X004953Y009201D01*
X006293Y009998D02*
X006293Y010055D01*
X006350Y010112D01*
X006293Y010168D01*
X006350Y010225D01*
X006520Y010225D01*
X006520Y010112D02*
X006350Y010112D01*
X006293Y009998D02*
X006520Y009998D01*
D12*
X006262Y002500D02*
X006238Y002500D01*
D13*
X006375Y001970D02*
X006645Y001970D01*
X006645Y001880D02*
X006645Y002061D01*
X006465Y001880D02*
X006375Y001970D01*
X006420Y001766D02*
X006375Y001721D01*
X006375Y001631D01*
X006420Y001586D01*
X006600Y001586D01*
X006645Y001631D01*
X006645Y001721D01*
X006600Y001766D01*
X005925Y001250D02*
X005925Y001070D01*
X005925Y001160D02*
X005655Y001160D01*
X005745Y001070D01*
X005700Y000955D02*
X005790Y000955D01*
X005835Y000910D01*
X005835Y000775D01*
X005925Y000775D02*
X005655Y000775D01*
X005655Y000910D01*
X005700Y000955D01*
X005835Y000865D02*
X005925Y000955D01*
X005333Y002341D02*
X005037Y002636D01*
X004742Y002341D01*
X005333Y002341D01*
X005288Y002386D02*
X004787Y002386D01*
X004835Y002434D02*
X005240Y002434D01*
X005191Y002483D02*
X004884Y002483D01*
X004932Y002531D02*
X005143Y002531D01*
X005094Y002580D02*
X004981Y002580D01*
X005029Y002628D02*
X005046Y002628D01*
X005046Y006623D02*
X005001Y006668D01*
X005182Y006849D01*
X005182Y006668D01*
X005137Y006623D01*
X005046Y006623D01*
X005001Y006668D02*
X005001Y006849D01*
X005046Y006894D01*
X005137Y006894D01*
X005182Y006849D01*
X005296Y006894D02*
X005386Y006804D01*
X005476Y006894D01*
X005476Y006623D01*
X005296Y006623D02*
X005296Y006894D01*
X004887Y006623D02*
X004707Y006623D01*
X004797Y006623D02*
X004797Y006894D01*
X004707Y006804D01*
X004592Y006849D02*
X004547Y006894D01*
X004457Y006894D01*
X004412Y006849D01*
X004412Y006668D01*
X004457Y006623D01*
X004547Y006623D01*
X004592Y006668D01*
X004592Y006759D01*
X004502Y006759D01*
X004298Y006759D02*
X004117Y006759D01*
X004117Y006804D02*
X004208Y006894D01*
X004298Y006804D01*
X004298Y006623D01*
X004117Y006623D02*
X004117Y006804D01*
X004003Y006894D02*
X003823Y006894D01*
X003913Y006894D02*
X003913Y006623D01*
X003663Y006668D02*
X003663Y006894D01*
X003618Y006894D02*
X003708Y006894D01*
X003663Y006668D02*
X003618Y006623D01*
X003573Y006623D01*
X003528Y006668D01*
X002340Y008225D02*
X002385Y008270D01*
X002385Y008315D01*
X002340Y008360D01*
X002115Y008360D01*
X002115Y008315D02*
X002115Y008405D01*
X002115Y008520D02*
X002115Y008700D01*
X002115Y008610D02*
X002385Y008610D01*
X002385Y008814D02*
X002205Y008814D01*
X002115Y008904D01*
X002205Y008994D01*
X002385Y008994D01*
X002340Y009109D02*
X002385Y009154D01*
X002385Y009244D01*
X002340Y009289D01*
X002250Y009289D01*
X002250Y009199D01*
X002160Y009109D02*
X002340Y009109D01*
X002250Y008994D02*
X002250Y008814D01*
X002160Y009109D02*
X002115Y009154D01*
X002115Y009244D01*
X002160Y009289D01*
X002160Y009404D02*
X002115Y009449D01*
X002115Y009539D01*
X002160Y009584D01*
X002205Y009584D01*
X002385Y009404D01*
X002385Y009584D01*
X002340Y009698D02*
X002160Y009878D01*
X002340Y009878D01*
X002385Y009833D01*
X002385Y009743D01*
X002340Y009698D01*
X002160Y009698D01*
X002115Y009743D01*
X002115Y009833D01*
X002160Y009878D01*
X002115Y009993D02*
X002115Y010173D01*
X002250Y010083D02*
X002250Y009993D01*
X002385Y009993D02*
X002115Y009993D01*
D14*
X005350Y001300D03*
D15*
X004450Y001700D02*
X004450Y000700D01*
X002450Y000700D01*
X002450Y001700D01*
X004450Y001700D01*
X005650Y007600D02*
X002650Y007600D01*
X002650Y008600D01*
X005650Y008600D01*
X005650Y007600D01*
X004650Y009200D02*
X002650Y009200D01*
X002650Y010200D01*
X004650Y010200D01*
X004650Y009200D01*
D16*
X004164Y010295D02*
X003970Y010295D01*
X004164Y010488D01*
X004164Y010537D01*
X004115Y010585D01*
X004019Y010585D01*
X003970Y010537D01*
X003164Y010295D02*
X002970Y010295D01*
X003067Y010295D02*
X003067Y010585D01*
X002970Y010488D01*
X003010Y000605D02*
X002913Y000605D01*
X002865Y000557D01*
X003010Y000605D02*
X003058Y000557D01*
X003058Y000508D01*
X002865Y000315D01*
X003058Y000315D01*
X003865Y000315D02*
X004058Y000315D01*
X003962Y000315D02*
X003962Y000605D01*
X003865Y000508D01*
M02*
